<svg width="103" height="33" viewBox="0 0 103 33" fill="none" xmlns="http://www.w3.org/2000/svg">
<rect width="103" height="33" rx="16" fill="#000B2F" fill-opacity="0.76"/>
<path d="M16.8789 21V13H21.8945V14.0391H18.0859V16.4766H21.6328V17.5117H18.0859V19.9609H21.9414V21H16.8789ZM25.6592 21.1172C25.1748 21.1172 24.7425 20.9935 24.3623 20.7461C23.9847 20.4961 23.6878 20.1406 23.4717 19.6797C23.2581 19.2161 23.1514 18.6602 23.1514 18.0117C23.1514 17.3633 23.2594 16.8086 23.4756 16.3477C23.6943 15.8867 23.9938 15.5339 24.374 15.2891C24.7542 15.0443 25.1852 14.9219 25.667 14.9219C26.0394 14.9219 26.3389 14.9844 26.5654 15.1094C26.7946 15.2318 26.9717 15.375 27.0967 15.5391C27.2243 15.7031 27.3232 15.8477 27.3936 15.9727H27.4639V13H28.6318V21H27.4912V20.0664H27.3936C27.3232 20.194 27.2217 20.3398 27.0889 20.5039C26.9587 20.668 26.779 20.8112 26.5498 20.9336C26.3206 21.056 26.0238 21.1172 25.6592 21.1172ZM25.917 20.1211C26.2529 20.1211 26.5368 20.0326 26.7686 19.8555C27.0029 19.6758 27.18 19.4271 27.2998 19.1094C27.4222 18.7917 27.4834 18.4219 27.4834 18C27.4834 17.5833 27.4235 17.2187 27.3037 16.9062C27.1839 16.5937 27.0081 16.3503 26.7764 16.1758C26.5446 16.0013 26.2581 15.9141 25.917 15.9141C25.5654 15.9141 25.2725 16.0052 25.0381 16.1875C24.8037 16.3698 24.6266 16.6185 24.5068 16.9336C24.3896 17.2487 24.3311 17.6042 24.3311 18C24.3311 18.401 24.391 18.7617 24.5107 19.082C24.6305 19.4023 24.8076 19.6562 25.042 19.8437C25.279 20.0286 25.5706 20.1211 25.917 20.1211ZM30.2988 21V15H31.4668V21H30.2988ZM30.8887 14.0742C30.6855 14.0742 30.5111 14.0065 30.3652 13.8711C30.222 13.7331 30.1504 13.569 30.1504 13.3789C30.1504 13.1862 30.222 13.0221 30.3652 12.8867C30.5111 12.7487 30.6855 12.6797 30.8887 12.6797C31.0918 12.6797 31.265 12.7487 31.4082 12.8867C31.554 13.0221 31.627 13.1862 31.627 13.3789C31.627 13.569 31.554 13.7331 31.4082 13.8711C31.265 14.0065 31.0918 14.0742 30.8887 14.0742ZM35.8389 15V15.9375H32.5615V15H35.8389ZM33.4404 13.5625H34.6084V19.2383C34.6084 19.4648 34.6423 19.6354 34.71 19.75C34.7777 19.862 34.8649 19.9388 34.9717 19.9805C35.0811 20.0195 35.1995 20.0391 35.3271 20.0391C35.4209 20.0391 35.5029 20.0326 35.5732 20.0195C35.6436 20.0065 35.6982 19.9961 35.7373 19.9883L35.9482 20.9531C35.8805 20.9792 35.7842 21.0052 35.6592 21.0313C35.5342 21.0599 35.3779 21.0755 35.1904 21.0781C34.8831 21.0833 34.5967 21.0286 34.3311 20.9141C34.0654 20.7995 33.8506 20.6224 33.6865 20.3828C33.5225 20.1432 33.4404 19.8424 33.4404 19.4805V13.5625ZM38.877 21.1328C38.4967 21.1328 38.153 21.0625 37.8457 20.9219C37.5384 20.7786 37.2949 20.5716 37.1152 20.3008C36.9382 20.0299 36.8496 19.6979 36.8496 19.3047C36.8496 18.9661 36.9147 18.6875 37.0449 18.4687C37.1751 18.25 37.3509 18.0768 37.5723 17.9492C37.7936 17.8216 38.041 17.7253 38.3145 17.6602C38.5879 17.5951 38.8665 17.5456 39.1504 17.5117C39.5098 17.4701 39.8014 17.4362 40.0254 17.4102C40.2493 17.3815 40.4121 17.3359 40.5137 17.2734C40.6152 17.2109 40.666 17.1094 40.666 16.9687V16.9414C40.666 16.6003 40.5697 16.3359 40.377 16.1484C40.1868 15.9609 39.903 15.8672 39.5254 15.8672C39.1322 15.8672 38.8223 15.9544 38.5957 16.1289C38.3717 16.3008 38.2168 16.4922 38.1309 16.7031L37.0332 16.4531C37.1634 16.0885 37.3535 15.7943 37.6035 15.5703C37.8561 15.3437 38.1465 15.1797 38.4746 15.0781C38.8027 14.974 39.1478 14.9219 39.5098 14.9219C39.7493 14.9219 40.0033 14.9505 40.2715 15.0078C40.5423 15.0625 40.7949 15.1641 41.0293 15.3125C41.2663 15.4609 41.4603 15.6732 41.6113 15.9492C41.7624 16.2227 41.8379 16.5781 41.8379 17.0156V21H40.6973V20.1797H40.6504C40.5749 20.3307 40.4616 20.4792 40.3105 20.625C40.1595 20.7708 39.9655 20.8919 39.7285 20.9883C39.4915 21.0846 39.2077 21.1328 38.877 21.1328ZM39.1309 20.1953C39.4538 20.1953 39.7298 20.1315 39.959 20.0039C40.1908 19.8763 40.3665 19.7096 40.4863 19.5039C40.6087 19.2956 40.6699 19.0729 40.6699 18.8359V18.0625C40.6283 18.1042 40.5475 18.1432 40.4277 18.1797C40.3105 18.2135 40.1764 18.2435 40.0254 18.2695C39.8743 18.293 39.7272 18.3151 39.584 18.3359C39.4408 18.3542 39.321 18.3698 39.2246 18.3828C38.998 18.4115 38.791 18.4596 38.6035 18.5273C38.4186 18.5951 38.2702 18.6927 38.1582 18.8203C38.0488 18.9453 37.9941 19.112 37.9941 19.3203C37.9941 19.6094 38.1009 19.8281 38.3145 19.9766C38.528 20.1224 38.8001 20.1953 39.1309 20.1953ZM43.3936 21V15H44.5225V15.9531H44.585C44.6943 15.6302 44.887 15.3763 45.1631 15.1914C45.4417 15.0039 45.7568 14.9102 46.1084 14.9102C46.1813 14.9102 46.2673 14.9128 46.3662 14.918C46.4678 14.9232 46.5472 14.9297 46.6045 14.9375V16.0547C46.5576 16.0417 46.4743 16.0273 46.3545 16.0117C46.2347 15.9935 46.1149 15.9844 45.9951 15.9844C45.7191 15.9844 45.473 16.043 45.2568 16.1602C45.0433 16.2747 44.874 16.4349 44.749 16.6406C44.624 16.8437 44.5615 17.0755 44.5615 17.3359V21H43.3936ZM50.5264 23.25V15H51.667V15.9727H51.7646C51.8324 15.8477 51.93 15.7031 52.0576 15.5391C52.1852 15.375 52.3623 15.2318 52.5889 15.1094C52.8154 14.9844 53.1149 14.9219 53.4873 14.9219C53.9717 14.9219 54.404 15.0443 54.7842 15.2891C55.1644 15.5339 55.4626 15.8867 55.6787 16.3477C55.8975 16.8086 56.0068 17.3633 56.0068 18.0117C56.0068 18.6602 55.8988 19.2161 55.6826 19.6797C55.4665 20.1406 55.1696 20.4961 54.792 20.7461C54.4144 20.9935 53.9834 21.1172 53.499 21.1172C53.1344 21.1172 52.8363 21.056 52.6045 20.9336C52.3753 20.8112 52.1956 20.668 52.0654 20.5039C51.9352 20.3398 51.835 20.194 51.7646 20.0664H51.6943V23.25H50.5264ZM51.6709 18C51.6709 18.4219 51.7321 18.7917 51.8545 19.1094C51.9769 19.4271 52.154 19.6758 52.3857 19.8555C52.6175 20.0326 52.9014 20.1211 53.2373 20.1211C53.5863 20.1211 53.8779 20.0286 54.1123 19.8437C54.3467 19.6562 54.5238 19.4023 54.6436 19.082C54.766 18.7617 54.8271 18.401 54.8271 18C54.8271 17.6042 54.7673 17.2487 54.6475 16.9336C54.5303 16.6185 54.3532 16.3698 54.1162 16.1875C53.8818 16.0052 53.5889 15.9141 53.2373 15.9141C52.8988 15.9141 52.6123 16.0013 52.3779 16.1758C52.1462 16.3503 51.9704 16.5937 51.8506 16.9062C51.7308 17.2187 51.6709 17.5833 51.6709 18ZM59.9014 21.1211C59.3102 21.1211 58.8011 20.9948 58.374 20.7422C57.9495 20.487 57.6214 20.1289 57.3896 19.668C57.1605 19.2044 57.0459 18.6615 57.0459 18.0391C57.0459 17.4245 57.1605 16.8828 57.3896 16.4141C57.6214 15.9453 57.9443 15.5794 58.3584 15.3164C58.7751 15.0534 59.262 14.9219 59.8193 14.9219C60.1579 14.9219 60.486 14.9779 60.8037 15.0898C61.1214 15.2018 61.4066 15.3776 61.6592 15.6172C61.9118 15.8568 62.111 16.168 62.2568 16.5508C62.4027 16.931 62.4756 17.3932 62.4756 17.9375V18.3516H57.7061V17.4766H61.3311C61.3311 17.1693 61.2686 16.8971 61.1436 16.6602C61.0186 16.4206 60.8428 16.2318 60.6162 16.0937C60.3923 15.9557 60.1292 15.8867 59.8271 15.8867C59.499 15.8867 59.2126 15.9674 58.9678 16.1289C58.7256 16.2878 58.5381 16.4961 58.4053 16.7539C58.2751 17.0091 58.21 17.2865 58.21 17.5859V18.2695C58.21 18.6706 58.2803 19.0117 58.4209 19.293C58.5641 19.5742 58.7633 19.7891 59.0186 19.9375C59.2738 20.0833 59.5719 20.1562 59.9131 20.1562C60.1344 20.1562 60.3363 20.125 60.5186 20.0625C60.7008 19.9974 60.8584 19.901 60.9912 19.7734C61.124 19.6458 61.2256 19.4883 61.2959 19.3008L62.4014 19.5C62.3128 19.8255 62.154 20.1107 61.9248 20.3555C61.6982 20.5977 61.4131 20.7865 61.0693 20.9219C60.7282 21.0547 60.3389 21.1211 59.9014 21.1211ZM63.7715 21V15H64.9004V15.9531H64.9629C65.0723 15.6302 65.265 15.3763 65.541 15.1914C65.8197 15.0039 66.1348 14.9102 66.4863 14.9102C66.5592 14.9102 66.6452 14.9128 66.7441 14.918C66.8457 14.9232 66.9251 14.9297 66.9824 14.9375V16.0547C66.9355 16.0417 66.8522 16.0273 66.7324 16.0117C66.6126 15.9935 66.4928 15.9844 66.373 15.9844C66.097 15.9844 65.8509 16.043 65.6348 16.1602C65.4212 16.2747 65.252 16.4349 65.127 16.6406C65.002 16.8437 64.9395 17.0755 64.9395 17.3359V21H63.7715ZM71.2031 15V15.9375H67.8125V15H71.2031ZM68.7422 21V14.3047C68.7422 13.9297 68.8242 13.6185 68.9883 13.3711C69.1523 13.1211 69.3698 12.9349 69.6406 12.8125C69.9115 12.6875 70.2057 12.625 70.5234 12.625C70.7578 12.625 70.9583 12.6445 71.125 12.6836C71.2917 12.7201 71.4154 12.7539 71.4961 12.7852L71.2227 13.7305C71.168 13.7148 71.0977 13.6966 71.0117 13.6758C70.9258 13.6523 70.8216 13.6406 70.6992 13.6406C70.4154 13.6406 70.2122 13.7109 70.0898 13.8516C69.9701 13.9922 69.9102 14.1953 69.9102 14.4609V21H68.7422ZM72.4082 21V15H73.5762V21H72.4082ZM72.998 14.0742C72.7949 14.0742 72.6204 14.0065 72.4746 13.8711C72.3314 13.7331 72.2598 13.569 72.2598 13.3789C72.2598 13.1862 72.3314 13.0221 72.4746 12.8867C72.6204 12.7487 72.7949 12.6797 72.998 12.6797C73.2012 12.6797 73.3743 12.7487 73.5176 12.8867C73.6634 13.0221 73.7363 13.1862 73.7363 13.3789C73.7363 13.569 73.6634 13.7331 73.5176 13.8711C73.3743 14.0065 73.2012 14.0742 72.998 14.0742ZM76.3154 13V21H75.1475V13H76.3154Z" fill="white"/>
<path d="M89.8538 14.021C90.0487 13.826 90.0487 13.501 89.8538 13.3161L88.6839 12.1462C88.499 11.9513 88.174 11.9513 87.979 12.1462L87.0592 13.0611L88.9339 14.9358M81 19.1253V21H82.8747L88.404 15.4658L86.5292 13.591L81 19.1253Z" fill="white"/>
</svg>
