<svg width="463" height="24" viewBox="0 0 463 24" fill="none" xmlns="http://www.w3.org/2000/svg">
<path d="M6.2787 13.2499C5.33745 12.3049 5.42245 10.6874 6.46807 9.63802L9.49807 6.59677C10.5437 5.54677 12.1543 5.46177 13.0962 6.40615C14.0374 7.35115 13.9524 8.96865 12.9068 10.0186L11.3918 11.5393" stroke="black" stroke-width="1.5" stroke-linecap="round"/>
<path d="M8.7212 10.75C9.66245 11.695 9.57745 13.3125 8.53182 14.3619L7.01682 15.8825L5.50182 17.4031C4.4562 18.4531 2.84557 18.5381 1.9037 17.5937C0.962446 16.6487 1.04745 15.0312 2.09307 13.9812L3.60807 12.4606" stroke="black" stroke-width="1.5" stroke-linecap="round"/>
<path d="M21.61 9.475C22.26 9.475 22.83 9.6 23.32 9.85C23.82 10.1 24.21 10.48 24.49 10.99C24.77 11.5 24.91 12.145 24.91 12.925V17.5H23.47V13.09C23.47 12.32 23.28 11.74 22.9 11.35C22.53 10.96 22.005 10.765 21.325 10.765C20.815 10.765 20.37 10.865 19.99 11.065C19.61 11.265 19.315 11.56 19.105 11.95C18.905 12.34 18.805 12.825 18.805 13.405V17.5H17.365V6.37H18.805V11.695L18.52 11.125C18.78 10.605 19.18 10.2 19.72 9.91C20.26 9.62 20.89 9.475 21.61 9.475ZM30.305 17.59C29.505 17.59 28.885 17.375 28.445 16.945C28.005 16.515 27.785 15.9 27.785 15.1V7.81H29.225V15.04C29.225 15.47 29.33 15.8 29.54 16.03C29.76 16.26 30.07 16.375 30.47 16.375C30.92 16.375 31.295 16.25 31.595 16L32.045 17.035C31.825 17.225 31.56 17.365 31.25 17.455C30.95 17.545 30.635 17.59 30.305 17.59ZM26.435 10.735V9.55H31.505V10.735H26.435ZM36.3255 17.59C35.5255 17.59 34.9055 17.375 34.4655 16.945C34.0255 16.515 33.8055 15.9 33.8055 15.1V7.81H35.2455V15.04C35.2455 15.47 35.3505 15.8 35.5605 16.03C35.7805 16.26 36.0905 16.375 36.4905 16.375C36.9405 16.375 37.3155 16.25 37.6155 16L38.0655 17.035C37.8455 17.225 37.5805 17.365 37.2705 17.455C36.9705 17.545 36.6555 17.59 36.3255 17.59ZM32.4555 10.735V9.55H37.5255V10.735H32.4555ZM44.0214 17.59C43.3614 17.59 42.7564 17.44 42.2064 17.14C41.6664 16.83 41.2314 16.375 40.9014 15.775C40.5814 15.175 40.4214 14.425 40.4214 13.525C40.4214 12.625 40.5764 11.875 40.8864 11.275C41.2064 10.675 41.6364 10.225 42.1764 9.925C42.7264 9.625 43.3414 9.475 44.0214 9.475C44.8014 9.475 45.4914 9.645 46.0914 9.985C46.6914 10.325 47.1664 10.8 47.5164 11.41C47.8664 12.01 48.0414 12.715 48.0414 13.525C48.0414 14.335 47.8664 15.045 47.5164 15.655C47.1664 16.265 46.6914 16.74 46.0914 17.08C45.4914 17.42 44.8014 17.59 44.0214 17.59ZM39.8064 20.41V9.55H41.1864V11.695L41.0964 13.54L41.2464 15.385V20.41H39.8064ZM43.9014 16.33C44.4114 16.33 44.8664 16.215 45.2664 15.985C45.6764 15.755 45.9964 15.43 46.2264 15.01C46.4664 14.58 46.5864 14.085 46.5864 13.525C46.5864 12.955 46.4664 12.465 46.2264 12.055C45.9964 11.635 45.6764 11.31 45.2664 11.08C44.8664 10.85 44.4114 10.735 43.9014 10.735C43.4014 10.735 42.9464 10.85 42.5364 11.08C42.1364 11.31 41.8164 11.635 41.5764 12.055C41.3464 12.465 41.2314 12.955 41.2314 13.525C41.2314 14.085 41.3464 14.58 41.5764 15.01C41.8164 15.43 42.1364 15.755 42.5364 15.985C42.9464 16.215 43.4014 16.33 43.9014 16.33ZM52.311 17.59C51.651 17.59 51.021 17.5 50.421 17.32C49.831 17.14 49.366 16.92 49.026 16.66L49.626 15.52C49.966 15.75 50.386 15.945 50.886 16.105C51.386 16.265 51.896 16.345 52.416 16.345C53.086 16.345 53.566 16.25 53.856 16.06C54.156 15.87 54.306 15.605 54.306 15.265C54.306 15.015 54.216 14.82 54.036 14.68C53.856 14.54 53.616 14.435 53.316 14.365C53.026 14.295 52.701 14.235 52.341 14.185C51.981 14.125 51.621 14.055 51.261 13.975C50.901 13.885 50.571 13.765 50.271 13.615C49.971 13.455 49.731 13.24 49.551 12.97C49.371 12.69 49.281 12.32 49.281 11.86C49.281 11.38 49.416 10.96 49.686 10.6C49.956 10.24 50.336 9.965 50.826 9.775C51.326 9.575 51.916 9.475 52.596 9.475C53.116 9.475 53.641 9.54 54.171 9.67C54.711 9.79 55.151 9.965 55.491 10.195L54.876 11.335C54.516 11.095 54.141 10.93 53.751 10.84C53.361 10.75 52.971 10.705 52.581 10.705C51.951 10.705 51.481 10.81 51.171 11.02C50.861 11.22 50.706 11.48 50.706 11.8C50.706 12.07 50.796 12.28 50.976 12.43C51.166 12.57 51.406 12.68 51.696 12.76C51.996 12.84 52.326 12.91 52.686 12.97C53.046 13.02 53.406 13.09 53.766 13.18C54.126 13.26 54.451 13.375 54.741 13.525C55.041 13.675 55.281 13.885 55.461 14.155C55.651 14.425 55.746 14.785 55.746 15.235C55.746 15.715 55.606 16.13 55.326 16.48C55.046 16.83 54.651 17.105 54.141 17.305C53.631 17.495 53.021 17.59 52.311 17.59ZM57.8907 11.53C57.6107 11.53 57.3707 11.435 57.1707 11.245C56.9707 11.045 56.8707 10.795 56.8707 10.495C56.8707 10.195 56.9707 9.95 57.1707 9.76C57.3707 9.57 57.6107 9.475 57.8907 9.475C58.1607 9.475 58.3907 9.57 58.5807 9.76C58.7807 9.95 58.8807 10.195 58.8807 10.495C58.8807 10.795 58.7807 11.045 58.5807 11.245C58.3907 11.435 58.1607 11.53 57.8907 11.53ZM57.8907 17.59C57.6107 17.59 57.3707 17.495 57.1707 17.305C56.9707 17.105 56.8707 16.855 56.8707 16.555C56.8707 16.255 56.9707 16.01 57.1707 15.82C57.3707 15.63 57.6107 15.535 57.8907 15.535C58.1607 15.535 58.3907 15.63 58.5807 15.82C58.7807 16.01 58.8807 16.255 58.8807 16.555C58.8807 16.855 58.7807 17.105 58.5807 17.305C58.3907 17.495 58.1607 17.59 57.8907 17.59ZM59.8769 19L64.8269 4.87H66.1319L61.1819 19H59.8769ZM64.1396 19L69.0896 4.87H70.3946L65.4446 19H64.1396ZM73.5923 17.59C72.7923 17.59 72.0823 17.415 71.4623 17.065C70.8423 16.715 70.3523 16.235 69.9923 15.625C69.6323 15.005 69.4523 14.305 69.4523 13.525C69.4523 12.735 69.6323 12.035 69.9923 11.425C70.3523 10.815 70.8423 10.34 71.4623 10C72.0823 9.65 72.7923 9.475 73.5923 9.475C74.3823 9.475 75.0873 9.65 75.7073 10C76.3373 10.34 76.8273 10.815 77.1773 11.425C77.5373 12.025 77.7173 12.725 77.7173 13.525C77.7173 14.315 77.5373 15.015 77.1773 15.625C76.8273 16.235 76.3373 16.715 75.7073 17.065C75.0873 17.415 74.3823 17.59 73.5923 17.59ZM73.5923 16.33C74.1023 16.33 74.5573 16.215 74.9573 15.985C75.3673 15.755 75.6873 15.43 75.9173 15.01C76.1473 14.58 76.2623 14.085 76.2623 13.525C76.2623 12.955 76.1473 12.465 75.9173 12.055C75.6873 11.635 75.3673 11.31 74.9573 11.08C74.5573 10.85 74.1023 10.735 73.5923 10.735C73.0823 10.735 72.6273 10.85 72.2273 11.08C71.8273 11.31 71.5073 11.635 71.2673 12.055C71.0273 12.465 70.9073 12.955 70.9073 13.525C70.9073 14.085 71.0273 14.58 71.2673 15.01C71.5073 15.43 71.8273 15.755 72.2273 15.985C72.6273 16.215 73.0823 16.33 73.5923 16.33ZM83.9238 17.59C83.2638 17.59 82.6588 17.44 82.1088 17.14C81.5688 16.83 81.1338 16.375 80.8038 15.775C80.4838 15.175 80.3237 14.425 80.3237 13.525C80.3237 12.625 80.4788 11.875 80.7888 11.275C81.1088 10.675 81.5388 10.225 82.0788 9.925C82.6288 9.625 83.2438 9.475 83.9238 9.475C84.7038 9.475 85.3938 9.645 85.9938 9.985C86.5938 10.325 87.0688 10.8 87.4188 11.41C87.7688 12.01 87.9438 12.715 87.9438 13.525C87.9438 14.335 87.7688 15.045 87.4188 15.655C87.0688 16.265 86.5938 16.74 85.9938 17.08C85.3938 17.42 84.7038 17.59 83.9238 17.59ZM79.7088 20.41V9.55H81.0888V11.695L80.9988 13.54L81.1488 15.385V20.41H79.7088ZM83.8038 16.33C84.3138 16.33 84.7688 16.215 85.1688 15.985C85.5788 15.755 85.8988 15.43 86.1288 15.01C86.3688 14.58 86.4888 14.085 86.4888 13.525C86.4888 12.955 86.3688 12.465 86.1288 12.055C85.8988 11.635 85.5788 11.31 85.1688 11.08C84.7688 10.85 84.3138 10.735 83.8038 10.735C83.3038 10.735 82.8488 10.85 82.4388 11.08C82.0388 11.31 81.7188 11.635 81.4788 12.055C81.2488 12.465 81.1338 12.955 81.1338 13.525C81.1338 14.085 81.2488 14.58 81.4788 15.01C81.7188 15.43 82.0388 15.755 82.4388 15.985C82.8488 16.215 83.3038 16.33 83.8038 16.33ZM93.4734 17.59C92.6234 17.59 91.8734 17.415 91.2234 17.065C90.5834 16.715 90.0834 16.235 89.7234 15.625C89.3734 15.015 89.1984 14.315 89.1984 13.525C89.1984 12.735 89.3684 12.035 89.7084 11.425C90.0584 10.815 90.5334 10.34 91.1334 10C91.7434 9.65 92.4284 9.475 93.1884 9.475C93.9584 9.475 94.6384 9.645 95.2284 9.985C95.8184 10.325 96.2784 10.805 96.6084 11.425C96.9484 12.035 97.1184 12.75 97.1184 13.57C97.1184 13.63 97.1134 13.7 97.1034 13.78C97.1034 13.86 97.0984 13.935 97.0884 14.005H90.3234V12.97H96.3384L95.7534 13.33C95.7634 12.82 95.6584 12.365 95.4384 11.965C95.2184 11.565 94.9134 11.255 94.5234 11.035C94.1434 10.805 93.6984 10.69 93.1884 10.69C92.6884 10.69 92.2434 10.805 91.8534 11.035C91.4634 11.255 91.1584 11.57 90.9384 11.98C90.7184 12.38 90.6084 12.84 90.6084 13.36V13.6C90.6084 14.13 90.7284 14.605 90.9684 15.025C91.2184 15.435 91.5634 15.755 92.0034 15.985C92.4434 16.215 92.9484 16.33 93.5184 16.33C93.9884 16.33 94.4134 16.25 94.7934 16.09C95.1834 15.93 95.5234 15.69 95.8134 15.37L96.6084 16.3C96.2484 16.72 95.7984 17.04 95.2584 17.26C94.7284 17.48 94.1334 17.59 93.4734 17.59ZM103.363 9.475C104.013 9.475 104.583 9.6 105.073 9.85C105.573 10.1 105.963 10.48 106.243 10.99C106.523 11.5 106.663 12.145 106.663 12.925V17.5H105.223V13.09C105.223 12.32 105.033 11.74 104.653 11.35C104.283 10.96 103.758 10.765 103.078 10.765C102.568 10.765 102.123 10.865 101.743 11.065C101.363 11.265 101.068 11.56 100.858 11.95C100.658 12.34 100.558 12.825 100.558 13.405V17.5H99.1179V9.55H100.498V11.695L100.273 11.125C100.533 10.605 100.933 10.2 101.473 9.91C102.013 9.62 102.643 9.475 103.363 9.475ZM109.673 17.59C109.393 17.59 109.153 17.495 108.953 17.305C108.753 17.105 108.653 16.855 108.653 16.555C108.653 16.255 108.753 16.01 108.953 15.82C109.153 15.63 109.393 15.535 109.673 15.535C109.943 15.535 110.173 15.63 110.363 15.82C110.563 16.01 110.663 16.255 110.663 16.555C110.663 16.855 110.563 17.105 110.363 17.305C110.173 17.495 109.943 17.59 109.673 17.59ZM115.006 17.59C114.346 17.59 113.716 17.5 113.116 17.32C112.526 17.14 112.061 16.92 111.721 16.66L112.321 15.52C112.661 15.75 113.081 15.945 113.581 16.105C114.081 16.265 114.591 16.345 115.111 16.345C115.781 16.345 116.261 16.25 116.551 16.06C116.851 15.87 117.001 15.605 117.001 15.265C117.001 15.015 116.911 14.82 116.731 14.68C116.551 14.54 116.311 14.435 116.011 14.365C115.721 14.295 115.396 14.235 115.036 14.185C114.676 14.125 114.316 14.055 113.956 13.975C113.596 13.885 113.266 13.765 112.966 13.615C112.666 13.455 112.426 13.24 112.246 12.97C112.066 12.69 111.976 12.32 111.976 11.86C111.976 11.38 112.111 10.96 112.381 10.6C112.651 10.24 113.031 9.965 113.521 9.775C114.021 9.575 114.611 9.475 115.291 9.475C115.811 9.475 116.336 9.54 116.866 9.67C117.406 9.79 117.846 9.965 118.186 10.195L117.571 11.335C117.211 11.095 116.836 10.93 116.446 10.84C116.056 10.75 115.666 10.705 115.276 10.705C114.646 10.705 114.176 10.81 113.866 11.02C113.556 11.22 113.401 11.48 113.401 11.8C113.401 12.07 113.491 12.28 113.671 12.43C113.861 12.57 114.101 12.68 114.391 12.76C114.691 12.84 115.021 12.91 115.381 12.97C115.741 13.02 116.101 13.09 116.461 13.18C116.821 13.26 117.146 13.375 117.436 13.525C117.736 13.675 117.976 13.885 118.156 14.155C118.346 14.425 118.441 14.785 118.441 15.235C118.441 15.715 118.301 16.13 118.021 16.48C117.741 16.83 117.346 17.105 116.836 17.305C116.326 17.495 115.716 17.59 115.006 17.59ZM124.456 17.59C123.796 17.59 123.191 17.44 122.641 17.14C122.101 16.83 121.666 16.375 121.336 15.775C121.016 15.175 120.856 14.425 120.856 13.525C120.856 12.625 121.011 11.875 121.321 11.275C121.641 10.675 122.071 10.225 122.611 9.925C123.161 9.625 123.776 9.475 124.456 9.475C125.236 9.475 125.926 9.645 126.526 9.985C127.126 10.325 127.601 10.8 127.951 11.41C128.301 12.01 128.476 12.715 128.476 13.525C128.476 14.335 128.301 15.045 127.951 15.655C127.601 16.265 127.126 16.74 126.526 17.08C125.926 17.42 125.236 17.59 124.456 17.59ZM120.241 20.41V9.55H121.621V11.695L121.531 13.54L121.681 15.385V20.41H120.241ZM124.336 16.33C124.846 16.33 125.301 16.215 125.701 15.985C126.111 15.755 126.431 15.43 126.661 15.01C126.901 14.58 127.021 14.085 127.021 13.525C127.021 12.955 126.901 12.465 126.661 12.055C126.431 11.635 126.111 11.31 125.701 11.08C125.301 10.85 124.846 10.735 124.336 10.735C123.836 10.735 123.381 10.85 122.971 11.08C122.571 11.31 122.251 11.635 122.011 12.055C121.781 12.465 121.666 12.955 121.666 13.525C121.666 14.085 121.781 14.58 122.011 15.01C122.251 15.43 122.571 15.755 122.971 15.985C123.381 16.215 123.836 16.33 124.336 16.33ZM133.871 17.59C133.071 17.59 132.361 17.415 131.741 17.065C131.121 16.715 130.631 16.235 130.271 15.625C129.911 15.005 129.731 14.305 129.731 13.525C129.731 12.735 129.911 12.035 130.271 11.425C130.631 10.815 131.121 10.34 131.741 10C132.361 9.65 133.071 9.475 133.871 9.475C134.661 9.475 135.366 9.65 135.986 10C136.616 10.34 137.106 10.815 137.456 11.425C137.816 12.025 137.996 12.725 137.996 13.525C137.996 14.315 137.816 15.015 137.456 15.625C137.106 16.235 136.616 16.715 135.986 17.065C135.366 17.415 134.661 17.59 133.871 17.59ZM133.871 16.33C134.381 16.33 134.836 16.215 135.236 15.985C135.646 15.755 135.966 15.43 136.196 15.01C136.426 14.58 136.541 14.085 136.541 13.525C136.541 12.955 136.426 12.465 136.196 12.055C135.966 11.635 135.646 11.31 135.236 11.08C134.836 10.85 134.381 10.735 133.871 10.735C133.361 10.735 132.906 10.85 132.506 11.08C132.106 11.31 131.786 11.635 131.546 12.055C131.306 12.465 131.186 12.955 131.186 13.525C131.186 14.085 131.306 14.58 131.546 15.01C131.786 15.43 132.106 15.755 132.506 15.985C132.906 16.215 133.361 16.33 133.871 16.33ZM142.717 17.59C141.917 17.59 141.297 17.375 140.857 16.945C140.417 16.515 140.197 15.9 140.197 15.1V7.81H141.637V15.04C141.637 15.47 141.742 15.8 141.952 16.03C142.172 16.26 142.482 16.375 142.882 16.375C143.332 16.375 143.707 16.25 144.007 16L144.457 17.035C144.237 17.225 143.972 17.365 143.662 17.455C143.362 17.545 143.047 17.59 142.717 17.59ZM138.847 10.735V9.55H143.917V10.735H138.847ZM146.198 17.5V9.55H147.638V17.5H146.198ZM146.918 8.02C146.638 8.02 146.403 7.93 146.213 7.75C146.033 7.57 145.943 7.35 145.943 7.09C145.943 6.82 146.033 6.595 146.213 6.415C146.403 6.235 146.638 6.145 146.918 6.145C147.198 6.145 147.428 6.235 147.608 6.415C147.798 6.585 147.893 6.8 147.893 7.06C147.893 7.33 147.803 7.56 147.623 7.75C147.443 7.93 147.208 8.02 146.918 8.02ZM150.597 17.5V8.845C150.597 8.065 150.822 7.445 151.272 6.985C151.732 6.515 152.382 6.28 153.222 6.28C153.532 6.28 153.827 6.32 154.107 6.4C154.397 6.47 154.642 6.585 154.842 6.745L154.407 7.84C154.257 7.72 154.087 7.63 153.897 7.57C153.707 7.5 153.507 7.465 153.297 7.465C152.877 7.465 152.557 7.585 152.337 7.825C152.117 8.055 152.007 8.4 152.007 8.86V9.925L152.037 10.585V17.5H150.597ZM149.247 10.735V9.55H154.317V10.735H149.247ZM156.167 20.5C155.787 20.5 155.417 20.435 155.057 20.305C154.697 20.185 154.387 20.005 154.127 19.765L154.742 18.685C154.942 18.875 155.162 19.02 155.402 19.12C155.642 19.22 155.897 19.27 156.167 19.27C156.517 19.27 156.807 19.18 157.037 19C157.267 18.82 157.482 18.5 157.682 18.04L158.177 16.945L158.327 16.765L161.447 9.55H162.857L159.002 18.295C158.772 18.855 158.512 19.295 158.222 19.615C157.942 19.935 157.632 20.16 157.292 20.29C156.952 20.43 156.577 20.5 156.167 20.5ZM158.057 17.755L154.427 9.55H155.927L159.017 16.63L158.057 17.755ZM164.048 17.59C163.768 17.59 163.528 17.495 163.328 17.305C163.128 17.105 163.028 16.855 163.028 16.555C163.028 16.255 163.128 16.01 163.328 15.82C163.528 15.63 163.768 15.535 164.048 15.535C164.318 15.535 164.548 15.63 164.738 15.82C164.938 16.01 165.038 16.255 165.038 16.555C165.038 16.855 164.938 17.105 164.738 17.305C164.548 17.495 164.318 17.59 164.048 17.59ZM170.391 17.59C169.581 17.59 168.856 17.415 168.216 17.065C167.586 16.715 167.091 16.235 166.731 15.625C166.371 15.015 166.191 14.315 166.191 13.525C166.191 12.735 166.371 12.035 166.731 11.425C167.091 10.815 167.586 10.34 168.216 10C168.856 9.65 169.581 9.475 170.391 9.475C171.111 9.475 171.751 9.62 172.311 9.91C172.881 10.19 173.321 10.61 173.631 11.17L172.536 11.875C172.276 11.485 171.956 11.2 171.576 11.02C171.206 10.83 170.806 10.735 170.376 10.735C169.856 10.735 169.391 10.85 168.981 11.08C168.571 11.31 168.246 11.635 168.006 12.055C167.766 12.465 167.646 12.955 167.646 13.525C167.646 14.095 167.766 14.59 168.006 15.01C168.246 15.43 168.571 15.755 168.981 15.985C169.391 16.215 169.856 16.33 170.376 16.33C170.806 16.33 171.206 16.24 171.576 16.06C171.956 15.87 172.276 15.58 172.536 15.19L173.631 15.88C173.321 16.43 172.881 16.855 172.311 17.155C171.751 17.445 171.111 17.59 170.391 17.59ZM176.133 17.59C175.853 17.59 175.613 17.495 175.413 17.305C175.213 17.105 175.113 16.855 175.113 16.555C175.113 16.255 175.213 16.01 175.413 15.82C175.613 15.63 175.853 15.535 176.133 15.535C176.403 15.535 176.633 15.63 176.823 15.82C177.023 16.01 177.123 16.255 177.123 16.555C177.123 16.855 177.023 17.105 176.823 17.305C176.633 17.495 176.403 17.59 176.133 17.59ZM179.531 17.59C179.251 17.59 179.011 17.495 178.811 17.305C178.611 17.105 178.511 16.855 178.511 16.555C178.511 16.255 178.611 16.01 178.811 15.82C179.011 15.63 179.251 15.535 179.531 15.535C179.801 15.535 180.031 15.63 180.221 15.82C180.421 16.01 180.521 16.255 180.521 16.555C180.521 16.855 180.421 17.105 180.221 17.305C180.031 17.495 179.801 17.59 179.531 17.59ZM182.93 17.59C182.65 17.59 182.41 17.495 182.21 17.305C182.01 17.105 181.91 16.855 181.91 16.555C181.91 16.255 182.01 16.01 182.21 15.82C182.41 15.63 182.65 15.535 182.93 15.535C183.2 15.535 183.43 15.63 183.62 15.82C183.82 16.01 183.92 16.255 183.92 16.555C183.92 16.855 183.82 17.105 183.62 17.305C183.43 17.495 183.2 17.59 182.93 17.59Z" fill="#0129AB"/>
<path d="M212 11H214V13H212V11ZM212 15H214V17H212V15ZM216 11H218V13H216V11ZM216 15H218V17H216V15ZM220 11H222V13H220V11ZM220 15H222V17H220V15Z" fill="black"/>
<path d="M210 22H224C225.103 22 226 21.103 226 20V6C226 4.897 225.103 4 224 4H222V2H220V4H214V2H212V4H210C208.897 4 208 4.897 208 6V20C208 21.103 208.897 22 210 22ZM224 8L224.001 20H210V8H224Z" fill="black"/>
<path d="M239.782 11.183H244.306V12.574H239.782V11.183ZM239.912 15.083H245.047V16.5H238.222V7.4H244.865V8.817H239.912V15.083ZM250.714 9.48C251.269 9.48 251.763 9.58833 252.196 9.805C252.638 10.0217 252.985 10.3553 253.236 10.806C253.487 11.248 253.613 11.82 253.613 12.522V16.5H251.988V12.73C251.988 12.1147 251.841 11.6553 251.546 11.352C251.26 11.0487 250.857 10.897 250.337 10.897C249.956 10.897 249.618 10.975 249.323 11.131C249.028 11.287 248.799 11.521 248.634 11.833C248.478 12.1363 248.4 12.522 248.4 12.99V16.5H246.775V9.558H248.322V11.43L248.049 10.858C248.292 10.416 248.643 10.078 249.102 9.844C249.57 9.60133 250.107 9.48 250.714 9.48ZM258.287 16.591C257.525 16.591 256.935 16.396 256.519 16.006C256.103 15.6073 255.895 15.0223 255.895 14.251V8.024H257.52V14.212C257.52 14.5413 257.603 14.797 257.767 14.979C257.941 15.161 258.179 15.252 258.482 15.252C258.846 15.252 259.15 15.1567 259.392 14.966L259.847 16.123C259.657 16.279 259.423 16.396 259.145 16.474C258.868 16.552 258.582 16.591 258.287 16.591ZM254.751 10.91V9.61H259.379V10.91H254.751ZM261.184 16.5V9.558H262.731V11.469L262.549 10.91C262.757 10.442 263.082 10.0867 263.524 9.844C263.975 9.60133 264.534 9.48 265.201 9.48V11.027C265.132 11.0097 265.067 11.001 265.006 11.001C264.945 10.9923 264.885 10.988 264.824 10.988C264.209 10.988 263.719 11.17 263.355 11.534C262.991 11.8893 262.809 12.4223 262.809 13.133V16.5H261.184ZM269.636 16.591C268.926 16.591 268.293 16.4393 267.738 16.136C267.184 15.824 266.746 15.3993 266.425 14.862C266.105 14.3247 265.944 13.7137 265.944 13.029C265.944 12.3357 266.105 11.7247 266.425 11.196C266.746 10.6587 267.184 10.2383 267.738 9.935C268.293 9.63167 268.926 9.48 269.636 9.48C270.356 9.48 270.993 9.63167 271.547 9.935C272.111 10.2383 272.548 10.6543 272.86 11.183C273.181 11.7117 273.341 12.327 273.341 13.029C273.341 13.7137 273.181 14.3247 272.86 14.862C272.548 15.3993 272.111 15.824 271.547 16.136C270.993 16.4393 270.356 16.591 269.636 16.591ZM269.636 15.2C270.035 15.2 270.39 15.1133 270.702 14.94C271.014 14.7667 271.257 14.5153 271.43 14.186C271.612 13.8567 271.703 13.471 271.703 13.029C271.703 12.5783 271.612 12.1927 271.43 11.872C271.257 11.5427 271.014 11.2913 270.702 11.118C270.39 10.9447 270.039 10.858 269.649 10.858C269.251 10.858 268.895 10.9447 268.583 11.118C268.28 11.2913 268.037 11.5427 267.855 11.872C267.673 12.1927 267.582 12.5783 267.582 13.029C267.582 13.471 267.673 13.8567 267.855 14.186C268.037 14.5153 268.28 14.7667 268.583 14.94C268.895 15.1133 269.246 15.2 269.636 15.2ZM277.833 16.591C277.244 16.591 276.724 16.4827 276.273 16.266C275.822 16.0407 275.471 15.7027 275.22 15.252C274.969 14.7927 274.843 14.2163 274.843 13.523V9.558H276.468V13.302C276.468 13.926 276.607 14.394 276.884 14.706C277.17 15.0093 277.573 15.161 278.093 15.161C278.474 15.161 278.804 15.083 279.081 14.927C279.367 14.771 279.588 14.537 279.744 14.225C279.909 13.913 279.991 13.5273 279.991 13.068V9.558H281.616V16.5H280.069V14.628L280.342 15.2C280.108 15.6507 279.766 15.9973 279.315 16.24C278.864 16.474 278.37 16.591 277.833 16.591ZM291.276 9.48C291.83 9.48 292.324 9.58833 292.758 9.805C293.2 10.0217 293.546 10.3553 293.798 10.806C294.049 11.248 294.175 11.82 294.175 12.522V16.5H292.55V12.73C292.55 12.1147 292.402 11.6553 292.108 11.352C291.822 11.0487 291.419 10.897 290.899 10.897C290.517 10.897 290.179 10.975 289.885 11.131C289.59 11.287 289.36 11.521 289.196 11.833C289.04 12.1363 288.962 12.522 288.962 12.99V16.5H287.337V9.558H288.884V11.43L288.611 10.858C288.853 10.416 289.204 10.078 289.664 9.844C290.132 9.60133 290.669 9.48 291.276 9.48ZM299.369 16.591C298.658 16.591 298.025 16.4393 297.471 16.136C296.916 15.824 296.478 15.3993 296.158 14.862C295.837 14.3247 295.677 13.7137 295.677 13.029C295.677 12.3357 295.837 11.7247 296.158 11.196C296.478 10.6587 296.916 10.2383 297.471 9.935C298.025 9.63167 298.658 9.48 299.369 9.48C300.088 9.48 300.725 9.63167 301.28 9.935C301.843 10.2383 302.281 10.6543 302.593 11.183C302.913 11.7117 303.074 12.327 303.074 13.029C303.074 13.7137 302.913 14.3247 302.593 14.862C302.281 15.3993 301.843 15.824 301.28 16.136C300.725 16.4393 300.088 16.591 299.369 16.591ZM299.369 15.2C299.767 15.2 300.123 15.1133 300.435 14.94C300.747 14.7667 300.989 14.5153 301.163 14.186C301.345 13.8567 301.436 13.471 301.436 13.029C301.436 12.5783 301.345 12.1927 301.163 11.872C300.989 11.5427 300.747 11.2913 300.435 11.118C300.123 10.9447 299.772 10.858 299.382 10.858C298.983 10.858 298.628 10.9447 298.316 11.118C298.012 11.2913 297.77 11.5427 297.588 11.872C297.406 12.1927 297.315 12.5783 297.315 13.029C297.315 13.471 297.406 13.8567 297.588 14.186C297.77 14.5153 298.012 14.7667 298.316 14.94C298.628 15.1133 298.979 15.2 299.369 15.2ZM310.365 16.591C309.785 16.591 309.226 16.5173 308.688 16.37C308.16 16.214 307.739 16.0277 307.427 15.811L308.051 14.576C308.363 14.7753 308.736 14.94 309.169 15.07C309.603 15.2 310.036 15.265 310.469 15.265C310.981 15.265 311.349 15.1957 311.574 15.057C311.808 14.9183 311.925 14.732 311.925 14.498C311.925 14.3073 311.847 14.1643 311.691 14.069C311.535 13.965 311.332 13.887 311.08 13.835C310.829 13.783 310.547 13.7353 310.235 13.692C309.932 13.6487 309.624 13.5923 309.312 13.523C309.009 13.445 308.732 13.3367 308.48 13.198C308.229 13.0507 308.025 12.8557 307.869 12.613C307.713 12.3703 307.635 12.0497 307.635 11.651C307.635 11.209 307.761 10.8277 308.012 10.507C308.264 10.1777 308.615 9.92633 309.065 9.753C309.525 9.571 310.066 9.48 310.69 9.48C311.158 9.48 311.631 9.532 312.107 9.636C312.584 9.74 312.978 9.88733 313.29 10.078L312.666 11.313C312.337 11.1137 312.003 10.9793 311.665 10.91C311.336 10.832 311.007 10.793 310.677 10.793C310.183 10.793 309.815 10.8667 309.572 11.014C309.338 11.1613 309.221 11.3477 309.221 11.573C309.221 11.781 309.299 11.937 309.455 12.041C309.611 12.145 309.815 12.2273 310.066 12.288C310.318 12.3487 310.595 12.4007 310.898 12.444C311.21 12.4787 311.518 12.535 311.821 12.613C312.125 12.691 312.402 12.7993 312.653 12.938C312.913 13.068 313.121 13.2543 313.277 13.497C313.433 13.7397 313.511 14.056 313.511 14.446C313.511 14.8793 313.381 15.2563 313.121 15.577C312.87 15.8977 312.51 16.149 312.042 16.331C311.574 16.5043 311.015 16.591 310.365 16.591ZM314.911 16.5V9.558H316.536V16.5H314.911ZM315.73 8.414C315.426 8.414 315.175 8.31867 314.976 8.128C314.785 7.93733 314.69 7.70767 314.69 7.439C314.69 7.16167 314.785 6.932 314.976 6.75C315.175 6.55933 315.426 6.464 315.73 6.464C316.033 6.464 316.28 6.555 316.471 6.737C316.67 6.91033 316.77 7.13133 316.77 7.4C316.77 7.686 316.674 7.92867 316.484 8.128C316.293 8.31867 316.042 8.414 315.73 8.414ZM321.282 16.591C320.519 16.591 319.93 16.396 319.514 16.006C319.098 15.6073 318.89 15.0223 318.89 14.251V8.024H320.515V14.212C320.515 14.5413 320.597 14.797 320.762 14.979C320.935 15.161 321.173 15.252 321.477 15.252C321.841 15.252 322.144 15.1567 322.387 14.966L322.842 16.123C322.651 16.279 322.417 16.396 322.14 16.474C321.862 16.552 321.576 16.591 321.282 16.591ZM317.746 10.91V9.61H322.374V10.91H317.746ZM327.213 16.591C326.441 16.591 325.765 16.4393 325.185 16.136C324.613 15.824 324.166 15.3993 323.846 14.862C323.534 14.3247 323.378 13.7137 323.378 13.029C323.378 12.3357 323.529 11.7247 323.833 11.196C324.145 10.6587 324.569 10.2383 325.107 9.935C325.653 9.63167 326.272 9.48 326.966 9.48C327.642 9.48 328.244 9.62733 328.773 9.922C329.301 10.2167 329.717 10.6327 330.021 11.17C330.324 11.7073 330.476 12.34 330.476 13.068C330.476 13.1373 330.471 13.2153 330.463 13.302C330.463 13.3887 330.458 13.471 330.45 13.549H324.665V12.47H329.592L328.955 12.808C328.963 12.4093 328.881 12.0583 328.708 11.755C328.534 11.4517 328.296 11.2133 327.993 11.04C327.698 10.8667 327.356 10.78 326.966 10.78C326.567 10.78 326.216 10.8667 325.913 11.04C325.618 11.2133 325.384 11.456 325.211 11.768C325.046 12.0713 324.964 12.431 324.964 12.847V13.107C324.964 13.523 325.059 13.8913 325.25 14.212C325.44 14.5327 325.709 14.7797 326.056 14.953C326.402 15.1263 326.801 15.213 327.252 15.213C327.642 15.213 327.993 15.1523 328.305 15.031C328.617 14.9097 328.894 14.719 329.137 14.459L330.008 15.46C329.696 15.824 329.301 16.1057 328.825 16.305C328.357 16.4957 327.819 16.591 327.213 16.591ZM338.892 16.591C338.121 16.591 337.445 16.4393 336.864 16.136C336.292 15.824 335.846 15.3993 335.525 14.862C335.213 14.3247 335.057 13.7137 335.057 13.029C335.057 12.3357 335.209 11.7247 335.512 11.196C335.824 10.6587 336.249 10.2383 336.786 9.935C337.332 9.63167 337.952 9.48 338.645 9.48C339.321 9.48 339.924 9.62733 340.452 9.922C340.981 10.2167 341.397 10.6327 341.7 11.17C342.004 11.7073 342.155 12.34 342.155 13.068C342.155 13.1373 342.151 13.2153 342.142 13.302C342.142 13.3887 342.138 13.471 342.129 13.549H336.344V12.47H341.271L340.634 12.808C340.643 12.4093 340.561 12.0583 340.387 11.755C340.214 11.4517 339.976 11.2133 339.672 11.04C339.378 10.8667 339.035 10.78 338.645 10.78C338.247 10.78 337.896 10.8667 337.592 11.04C337.298 11.2133 337.064 11.456 336.89 11.768C336.726 12.0713 336.643 12.431 336.643 12.847V13.107C336.643 13.523 336.739 13.8913 336.929 14.212C337.12 14.5327 337.389 14.7797 337.735 14.953C338.082 15.1263 338.481 15.213 338.931 15.213C339.321 15.213 339.672 15.1523 339.984 15.031C340.296 14.9097 340.574 14.719 340.816 14.459L341.687 15.46C341.375 15.824 340.981 16.1057 340.504 16.305C340.036 16.4957 339.499 16.591 338.892 16.591ZM352.478 9.48C353.033 9.48 353.523 9.58833 353.947 9.805C354.381 10.0217 354.719 10.3553 354.961 10.806C355.204 11.248 355.325 11.82 355.325 12.522V16.5H353.7V12.73C353.7 12.1147 353.566 11.6553 353.297 11.352C353.029 11.0487 352.643 10.897 352.14 10.897C351.785 10.897 351.469 10.975 351.191 11.131C350.923 11.287 350.71 11.5167 350.554 11.82C350.407 12.1233 350.333 12.509 350.333 12.977V16.5H348.708V12.73C348.708 12.1147 348.574 11.6553 348.305 11.352C348.037 11.0487 347.651 10.897 347.148 10.897C346.793 10.897 346.477 10.975 346.199 11.131C345.931 11.287 345.718 11.5167 345.562 11.82C345.415 12.1233 345.341 12.509 345.341 12.977V16.5H343.716V9.558H345.263V11.404L344.99 10.858C345.224 10.4073 345.562 10.065 346.004 9.831C346.455 9.597 346.966 9.48 347.538 9.48C348.188 9.48 348.752 9.64033 349.228 9.961C349.714 10.2817 350.034 10.767 350.19 11.417L349.553 11.196C349.779 10.676 350.151 10.26 350.671 9.948C351.191 9.636 351.794 9.48 352.478 9.48ZM360.28 19.113C359.976 19.113 359.69 19.0783 359.422 19.009C359.144 18.9483 358.91 18.8487 358.72 18.71L359.188 17.501C359.439 17.683 359.755 17.774 360.137 17.774C360.431 17.774 360.661 17.6787 360.826 17.488C360.99 17.306 361.073 17.033 361.073 16.669V9.558H362.698V16.63C362.698 17.3927 362.485 17.995 362.061 18.437C361.645 18.8877 361.051 19.113 360.28 19.113ZM361.879 8.414C361.575 8.414 361.324 8.31867 361.125 8.128C360.934 7.93733 360.839 7.70767 360.839 7.439C360.839 7.16167 360.934 6.932 361.125 6.75C361.324 6.55933 361.575 6.464 361.879 6.464C362.182 6.464 362.429 6.555 362.62 6.737C362.819 6.91033 362.919 7.13133 362.919 7.4C362.919 7.686 362.823 7.92867 362.633 8.128C362.442 8.31867 362.191 8.414 361.879 8.414ZM369.106 16.5V15.096L369.015 14.797V12.34C369.015 11.8633 368.872 11.495 368.586 11.235C368.3 10.9663 367.866 10.832 367.286 10.832C366.896 10.832 366.51 10.8927 366.129 11.014C365.756 11.1353 365.44 11.3043 365.18 11.521L364.543 10.338C364.915 10.052 365.357 9.83967 365.869 9.701C366.389 9.55367 366.926 9.48 367.481 9.48C368.486 9.48 369.262 9.72267 369.808 10.208C370.362 10.6847 370.64 11.4257 370.64 12.431V16.5H369.106ZM366.922 16.591C366.402 16.591 365.947 16.5043 365.557 16.331C365.167 16.149 364.863 15.902 364.647 15.59C364.439 15.2693 364.335 14.9097 364.335 14.511C364.335 14.121 364.426 13.77 364.608 13.458C364.798 13.146 365.106 12.899 365.531 12.717C365.955 12.535 366.519 12.444 367.221 12.444H369.236V13.523H367.338C366.783 13.523 366.41 13.614 366.22 13.796C366.029 13.9693 365.934 14.186 365.934 14.446C365.934 14.7407 366.051 14.9747 366.285 15.148C366.519 15.3213 366.844 15.408 367.26 15.408C367.658 15.408 368.014 15.317 368.326 15.135C368.646 14.953 368.876 14.6843 369.015 14.329L369.288 15.304C369.132 15.7113 368.85 16.0277 368.443 16.253C368.044 16.4783 367.537 16.591 366.922 16.591ZM376.664 9.48C377.219 9.48 377.713 9.58833 378.146 9.805C378.588 10.0217 378.935 10.3553 379.186 10.806C379.438 11.248 379.563 11.82 379.563 12.522V16.5H377.938V12.73C377.938 12.1147 377.791 11.6553 377.496 11.352C377.21 11.0487 376.807 10.897 376.287 10.897C375.906 10.897 375.568 10.975 375.273 11.131C374.979 11.287 374.749 11.521 374.584 11.833C374.428 12.1363 374.35 12.522 374.35 12.99V16.5H372.725V9.558H374.272V11.43L373.999 10.858C374.242 10.416 374.593 10.078 375.052 9.844C375.52 9.60133 376.058 9.48 376.664 9.48ZM384.9 16.591C384.129 16.591 383.453 16.4393 382.872 16.136C382.3 15.824 381.854 15.3993 381.533 14.862C381.221 14.3247 381.065 13.7137 381.065 13.029C381.065 12.3357 381.217 11.7247 381.52 11.196C381.832 10.6587 382.257 10.2383 382.794 9.935C383.34 9.63167 383.96 9.48 384.653 9.48C385.329 9.48 385.932 9.62733 386.46 9.922C386.989 10.2167 387.405 10.6327 387.708 11.17C388.012 11.7073 388.163 12.34 388.163 13.068C388.163 13.1373 388.159 13.2153 388.15 13.302C388.15 13.3887 388.146 13.471 388.137 13.549H382.352V12.47H387.279L386.642 12.808C386.651 12.4093 386.569 12.0583 386.395 11.755C386.222 11.4517 385.984 11.2133 385.68 11.04C385.386 10.8667 385.043 10.78 384.653 10.78C384.255 10.78 383.904 10.8667 383.6 11.04C383.306 11.2133 383.072 11.456 382.898 11.768C382.734 12.0713 382.651 12.431 382.651 12.847V13.107C382.651 13.523 382.747 13.8913 382.937 14.212C383.128 14.5327 383.397 14.7797 383.743 14.953C384.09 15.1263 384.489 15.213 384.939 15.213C385.329 15.213 385.68 15.1523 385.992 15.031C386.304 14.9097 386.582 14.719 386.824 14.459L387.695 15.46C387.383 15.824 386.989 16.1057 386.512 16.305C386.044 16.4957 385.507 16.591 384.9 16.591ZM389.724 16.5V9.558H391.349V16.5H389.724ZM390.543 8.414C390.24 8.414 389.989 8.31867 389.789 8.128C389.599 7.93733 389.503 7.70767 389.503 7.439C389.503 7.16167 389.599 6.932 389.789 6.75C389.989 6.55933 390.24 6.464 390.543 6.464C390.847 6.464 391.094 6.555 391.284 6.737C391.484 6.91033 391.583 7.13133 391.583 7.4C391.583 7.686 391.488 7.92867 391.297 8.128C391.107 8.31867 390.855 8.414 390.543 8.414ZM393.482 16.5V9.558H395.029V11.469L394.847 10.91C395.055 10.442 395.38 10.0867 395.822 9.844C396.273 9.60133 396.832 9.48 397.499 9.48V11.027C397.43 11.0097 397.365 11.001 397.304 11.001C397.243 10.9923 397.183 10.988 397.122 10.988C396.507 10.988 396.017 11.17 395.653 11.534C395.289 11.8893 395.107 12.4223 395.107 13.133V16.5H393.482ZM401.934 16.591C401.223 16.591 400.591 16.4393 400.036 16.136C399.481 15.824 399.044 15.3993 398.723 14.862C398.402 14.3247 398.242 13.7137 398.242 13.029C398.242 12.3357 398.402 11.7247 398.723 11.196C399.044 10.6587 399.481 10.2383 400.036 9.935C400.591 9.63167 401.223 9.48 401.934 9.48C402.653 9.48 403.29 9.63167 403.845 9.935C404.408 10.2383 404.846 10.6543 405.158 11.183C405.479 11.7117 405.639 12.327 405.639 13.029C405.639 13.7137 405.479 14.3247 405.158 14.862C404.846 15.3993 404.408 15.824 403.845 16.136C403.29 16.4393 402.653 16.591 401.934 16.591ZM401.934 15.2C402.333 15.2 402.688 15.1133 403 14.94C403.312 14.7667 403.555 14.5153 403.728 14.186C403.91 13.8567 404.001 13.471 404.001 13.029C404.001 12.5783 403.91 12.1927 403.728 11.872C403.555 11.5427 403.312 11.2913 403 11.118C402.688 10.9447 402.337 10.858 401.947 10.858C401.548 10.858 401.193 10.9447 400.881 11.118C400.578 11.2913 400.335 11.5427 400.153 11.872C399.971 12.1927 399.88 12.5783 399.88 13.029C399.88 13.471 399.971 13.8567 400.153 14.186C400.335 14.5153 400.578 14.7667 400.881 14.94C401.193 15.1133 401.544 15.2 401.934 15.2ZM413.724 16.591C413.056 16.591 412.454 16.4437 411.917 16.149C411.388 15.8457 410.972 15.4297 410.669 14.901C410.365 14.3723 410.214 13.7483 410.214 13.029C410.214 12.3097 410.365 11.6857 410.669 11.157C410.972 10.6283 411.388 10.2167 411.917 9.922C412.454 9.62733 413.056 9.48 413.724 9.48C414.304 9.48 414.824 9.61 415.284 9.87C415.743 10.1213 416.107 10.507 416.376 11.027C416.644 11.547 416.779 12.2143 416.779 13.029C416.779 13.835 416.649 14.5023 416.389 15.031C416.129 15.551 415.769 15.941 415.31 16.201C414.85 16.461 414.322 16.591 413.724 16.591ZM413.919 15.2C414.309 15.2 414.655 15.1133 414.959 14.94C415.271 14.7667 415.518 14.5153 415.7 14.186C415.89 13.8567 415.986 13.471 415.986 13.029C415.986 12.5783 415.89 12.1927 415.7 11.872C415.518 11.5427 415.271 11.2913 414.959 11.118C414.655 10.9447 414.309 10.858 413.919 10.858C413.529 10.858 413.178 10.9447 412.866 11.118C412.562 11.2913 412.315 11.5427 412.125 11.872C411.943 12.1927 411.852 12.5783 411.852 13.029C411.852 13.471 411.943 13.8567 412.125 14.186C412.315 14.5153 412.562 14.7667 412.866 14.94C413.178 15.1133 413.529 15.2 413.919 15.2ZM416.025 16.5V14.862L416.09 13.016L415.96 11.17V6.854H417.572V16.5H416.025ZM422.974 16.591C422.202 16.591 421.526 16.4393 420.946 16.136C420.374 15.824 419.927 15.3993 419.607 14.862C419.295 14.3247 419.139 13.7137 419.139 13.029C419.139 12.3357 419.29 11.7247 419.594 11.196C419.906 10.6587 420.33 10.2383 420.868 9.935C421.414 9.63167 422.033 9.48 422.727 9.48C423.403 9.48 424.005 9.62733 424.534 9.922C425.062 10.2167 425.478 10.6327 425.782 11.17C426.085 11.7073 426.237 12.34 426.237 13.068C426.237 13.1373 426.232 13.2153 426.224 13.302C426.224 13.3887 426.219 13.471 426.211 13.549H420.426V12.47H425.353L424.716 12.808C424.724 12.4093 424.642 12.0583 424.469 11.755C424.295 11.4517 424.057 11.2133 423.754 11.04C423.459 10.8667 423.117 10.78 422.727 10.78C422.328 10.78 421.977 10.8667 421.674 11.04C421.379 11.2133 421.145 11.456 420.972 11.768C420.807 12.0713 420.725 12.431 420.725 12.847V13.107C420.725 13.523 420.82 13.8913 421.011 14.212C421.201 14.5327 421.47 14.7797 421.817 14.953C422.163 15.1263 422.562 15.213 423.013 15.213C423.403 15.213 423.754 15.1523 424.066 15.031C424.378 14.9097 424.655 14.719 424.898 14.459L425.769 15.46C425.457 15.824 425.062 16.1057 424.586 16.305C424.118 16.4957 423.58 16.591 422.974 16.591ZM430.779 16.5V15.369L434.393 11.937C434.697 11.651 434.922 11.3997 435.069 11.183C435.217 10.9663 435.312 10.767 435.355 10.585C435.407 10.3943 435.433 10.2167 435.433 10.052C435.433 9.636 435.29 9.31533 435.004 9.09C434.718 8.856 434.298 8.739 433.743 8.739C433.301 8.739 432.898 8.817 432.534 8.973C432.179 9.129 431.871 9.36733 431.611 9.688L430.428 8.778C430.784 8.30133 431.26 7.933 431.858 7.673C432.465 7.40433 433.141 7.27 433.886 7.27C434.545 7.27 435.117 7.37833 435.602 7.595C436.096 7.803 436.473 8.102 436.733 8.492C437.002 8.882 437.136 9.34567 437.136 9.883C437.136 10.1777 437.097 10.4723 437.019 10.767C436.941 11.053 436.794 11.3563 436.577 11.677C436.361 11.9977 436.044 12.3573 435.628 12.756L432.521 15.707L432.17 15.07H437.487V16.5H430.779ZM442.259 16.63C441.539 16.63 440.889 16.448 440.309 16.084C439.737 15.72 439.286 15.1913 438.957 14.498C438.627 13.796 438.463 12.9467 438.463 11.95C438.463 10.9533 438.627 10.1083 438.957 9.415C439.286 8.713 439.737 8.18 440.309 7.816C440.889 7.452 441.539 7.27 442.259 7.27C442.987 7.27 443.637 7.452 444.209 7.816C444.781 8.18 445.231 8.713 445.561 9.415C445.899 10.1083 446.068 10.9533 446.068 11.95C446.068 12.9467 445.899 13.796 445.561 14.498C445.231 15.1913 444.781 15.72 444.209 16.084C443.637 16.448 442.987 16.63 442.259 16.63ZM442.259 15.161C442.683 15.161 443.052 15.0483 443.364 14.823C443.676 14.589 443.918 14.2337 444.092 13.757C444.274 13.2803 444.365 12.678 444.365 11.95C444.365 11.2133 444.274 10.611 444.092 10.143C443.918 9.66633 443.676 9.31533 443.364 9.09C443.052 8.856 442.683 8.739 442.259 8.739C441.851 8.739 441.487 8.856 441.167 9.09C440.855 9.31533 440.608 9.66633 440.426 10.143C440.252 10.611 440.166 11.2133 440.166 11.95C440.166 12.678 440.252 13.2803 440.426 13.757C440.608 14.2337 440.855 14.589 441.167 14.823C441.487 15.0483 441.851 15.161 442.259 15.161ZM447.08 16.5V15.369L450.694 11.937C450.997 11.651 451.223 11.3997 451.37 11.183C451.517 10.9663 451.613 10.767 451.656 10.585C451.708 10.3943 451.734 10.2167 451.734 10.052C451.734 9.636 451.591 9.31533 451.305 9.09C451.019 8.856 450.599 8.739 450.044 8.739C449.602 8.739 449.199 8.817 448.835 8.973C448.48 9.129 448.172 9.36733 447.912 9.688L446.729 8.778C447.084 8.30133 447.561 7.933 448.159 7.673C448.766 7.40433 449.442 7.27 450.187 7.27C450.846 7.27 451.418 7.37833 451.903 7.595C452.397 7.803 452.774 8.102 453.034 8.492C453.303 8.882 453.437 9.34567 453.437 9.883C453.437 10.1777 453.398 10.4723 453.32 10.767C453.242 11.053 453.095 11.3563 452.878 11.677C452.661 11.9977 452.345 12.3573 451.929 12.756L448.822 15.707L448.471 15.07H453.788V16.5H447.08ZM454.443 14.433V13.263L458.928 7.4H460.735L456.315 13.263L455.47 13.003H462.685V14.433H454.443ZM459.435 16.5V14.433L459.487 13.003V11.17H461.073V16.5H459.435Z" fill="black"/>
</svg>
