<svg width="392" height="22" viewBox="0 0 392 22" fill="none" xmlns="http://www.w3.org/2000/svg">
<g clip-path="url(#clip0_815_75)">
<path d="M6.2787 12.7499C5.33745 11.8049 5.42245 10.1874 6.46807 9.13802L9.49807 6.09677C10.5437 5.04677 12.1543 4.96177 13.0962 5.90615C14.0374 6.85115 13.9524 8.46865 12.9068 9.51865L11.3918 11.0393" stroke="black" stroke-width="1.5" stroke-linecap="round"/>
<path d="M8.7212 10.25C9.66245 11.195 9.57745 12.8125 8.53182 13.8619L7.01682 15.3825L5.50182 16.9031C4.4562 17.9531 2.84557 18.0381 1.9037 17.0937C0.962446 16.1487 1.04745 14.5312 2.09307 13.4812L3.60807 11.9606" stroke="black" stroke-width="1.5" stroke-linecap="round"/>
</g>
<path d="M31.114 9.115C31.5907 9.115 32.0087 9.20667 32.368 9.39C32.7347 9.57333 33.0207 9.852 33.226 10.226C33.4313 10.6 33.534 11.073 33.534 11.645V15H32.478V11.766C32.478 11.2013 32.3387 10.776 32.06 10.49C31.7887 10.204 31.4037 10.061 30.905 10.061C30.531 10.061 30.2047 10.1343 29.926 10.281C29.6473 10.4277 29.431 10.644 29.277 10.93C29.1303 11.216 29.057 11.5717 29.057 11.997V15H28.001V6.838H29.057V10.743L28.848 10.325C29.0387 9.94367 29.332 9.64667 29.728 9.434C30.124 9.22133 30.586 9.115 31.114 9.115ZM37.4903 15.066C36.9036 15.066 36.449 14.9083 36.1263 14.593C35.8036 14.2777 35.6423 13.8267 35.6423 13.24V7.894H36.6983V13.196C36.6983 13.5113 36.7753 13.7533 36.9293 13.922C37.0906 14.0907 37.318 14.175 37.6113 14.175C37.9413 14.175 38.2163 14.0833 38.4363 13.9L38.7663 14.659C38.605 14.7983 38.4106 14.901 38.1833 14.967C37.9633 15.033 37.7323 15.066 37.4903 15.066ZM34.6523 10.039V9.17H38.3703V10.039H34.6523ZM41.9053 15.066C41.3187 15.066 40.864 14.9083 40.5413 14.593C40.2187 14.2777 40.0573 13.8267 40.0573 13.24V7.894H41.1133V13.196C41.1133 13.5113 41.1903 13.7533 41.3443 13.922C41.5057 14.0907 41.733 14.175 42.0263 14.175C42.3563 14.175 42.6313 14.0833 42.8513 13.9L43.1813 14.659C43.02 14.7983 42.8257 14.901 42.5983 14.967C42.3783 15.033 42.1473 15.066 41.9053 15.066ZM39.0673 10.039V9.17H42.7853V10.039H39.0673ZM47.549 15.066C47.065 15.066 46.6214 14.956 46.218 14.736C45.822 14.5087 45.503 14.175 45.261 13.735C45.0264 13.295 44.909 12.745 44.909 12.085C44.909 11.425 45.0227 10.875 45.25 10.435C45.4847 9.995 45.8 9.665 46.196 9.445C46.5994 9.225 47.0504 9.115 47.549 9.115C48.121 9.115 48.627 9.23967 49.067 9.489C49.507 9.73833 49.8554 10.0867 50.112 10.534C50.3687 10.974 50.497 11.491 50.497 12.085C50.497 12.679 50.3687 13.1997 50.112 13.647C49.8554 14.0943 49.507 14.4427 49.067 14.692C48.627 14.9413 48.121 15.066 47.549 15.066ZM44.458 17.134V9.17H45.47V10.743L45.404 12.096L45.514 13.449V17.134H44.458ZM47.461 14.142C47.835 14.142 48.1687 14.0577 48.462 13.889C48.7627 13.7203 48.9974 13.482 49.166 13.174C49.342 12.8587 49.43 12.4957 49.43 12.085C49.43 11.667 49.342 11.3077 49.166 11.007C48.9974 10.699 48.7627 10.4607 48.462 10.292C48.1687 10.1233 47.835 10.039 47.461 10.039C47.0944 10.039 46.7607 10.1233 46.46 10.292C46.1667 10.4607 45.932 10.699 45.756 11.007C45.5874 11.3077 45.503 11.667 45.503 12.085C45.503 12.4957 45.5874 12.8587 45.756 13.174C45.932 13.482 46.1667 13.7203 46.46 13.889C46.7607 14.0577 47.0944 14.142 47.461 14.142ZM53.6281 15.066C53.1441 15.066 52.6821 15 52.2421 14.868C51.8094 14.736 51.4684 14.5747 51.2191 14.384L51.6591 13.548C51.9084 13.7167 52.2164 13.8597 52.5831 13.977C52.9497 14.0943 53.3237 14.153 53.7051 14.153C54.1964 14.153 54.5484 14.0833 54.7611 13.944C54.9811 13.8047 55.0911 13.6103 55.0911 13.361C55.0911 13.1777 55.0251 13.0347 54.8931 12.932C54.7611 12.8293 54.5851 12.7523 54.3651 12.701C54.1524 12.6497 53.9141 12.6057 53.6501 12.569C53.3861 12.525 53.1221 12.4737 52.8581 12.415C52.5941 12.349 52.3521 12.261 52.1321 12.151C51.9121 12.0337 51.7361 11.876 51.6041 11.678C51.4721 11.4727 51.4061 11.2013 51.4061 10.864C51.4061 10.512 51.5051 10.204 51.7031 9.94C51.9011 9.676 52.1797 9.47433 52.5391 9.335C52.9057 9.18833 53.3384 9.115 53.8371 9.115C54.2184 9.115 54.6034 9.16267 54.9921 9.258C55.3881 9.346 55.7107 9.47433 55.9601 9.643L55.5091 10.479C55.2451 10.303 54.9701 10.182 54.6841 10.116C54.3981 10.05 54.1121 10.017 53.8261 10.017C53.3641 10.017 53.0194 10.094 52.7921 10.248C52.5647 10.3947 52.4511 10.5853 52.4511 10.82C52.4511 11.018 52.5171 11.172 52.6491 11.282C52.7884 11.3847 52.9644 11.4653 53.1771 11.524C53.3971 11.5827 53.6391 11.634 53.9031 11.678C54.1671 11.7147 54.4311 11.766 54.6951 11.832C54.9591 11.8907 55.1974 11.975 55.4101 12.085C55.6301 12.195 55.8061 12.349 55.9381 12.547C56.0774 12.745 56.1471 13.009 56.1471 13.339C56.1471 13.691 56.0444 13.9953 55.8391 14.252C55.6337 14.5087 55.3441 14.7103 54.9701 14.857C54.5961 14.9963 54.1487 15.066 53.6281 15.066ZM57.7198 10.622C57.5145 10.622 57.3385 10.5523 57.1918 10.413C57.0452 10.2663 56.9718 10.083 56.9718 9.863C56.9718 9.643 57.0452 9.46333 57.1918 9.324C57.3385 9.18467 57.5145 9.115 57.7198 9.115C57.9178 9.115 58.0865 9.18467 58.2258 9.324C58.3725 9.46333 58.4458 9.643 58.4458 9.863C58.4458 10.083 58.3725 10.2663 58.2258 10.413C58.0865 10.5523 57.9178 10.622 57.7198 10.622ZM57.7198 15.066C57.5145 15.066 57.3385 14.9963 57.1918 14.857C57.0452 14.7103 56.9718 14.527 56.9718 14.307C56.9718 14.087 57.0452 13.9073 57.1918 13.768C57.3385 13.6287 57.5145 13.559 57.7198 13.559C57.9178 13.559 58.0865 13.6287 58.2258 13.768C58.3725 13.9073 58.4458 14.087 58.4458 14.307C58.4458 14.527 58.3725 14.7103 58.2258 14.857C58.0865 14.9963 57.9178 15.066 57.7198 15.066ZM59.1764 16.1L62.8064 5.738H63.7634L60.1334 16.1H59.1764ZM62.3024 16.1L65.9324 5.738H66.8894L63.2594 16.1H62.3024ZM69.2343 15.066C68.6477 15.066 68.127 14.9377 67.6723 14.681C67.2177 14.4243 66.8583 14.0723 66.5943 13.625C66.3303 13.1703 66.1983 12.657 66.1983 12.085C66.1983 11.5057 66.3303 10.9923 66.5943 10.545C66.8583 10.0977 67.2177 9.74933 67.6723 9.5C68.127 9.24333 68.6477 9.115 69.2343 9.115C69.8137 9.115 70.3307 9.24333 70.7853 9.5C71.2473 9.74933 71.6067 10.0977 71.8633 10.545C72.1273 10.985 72.2593 11.4983 72.2593 12.085C72.2593 12.6643 72.1273 13.1777 71.8633 13.625C71.6067 14.0723 71.2473 14.4243 70.7853 14.681C70.3307 14.9377 69.8137 15.066 69.2343 15.066ZM69.2343 14.142C69.6083 14.142 69.942 14.0577 70.2353 13.889C70.536 13.7203 70.7707 13.482 70.9393 13.174C71.108 12.8587 71.1923 12.4957 71.1923 12.085C71.1923 11.667 71.108 11.3077 70.9393 11.007C70.7707 10.699 70.536 10.4607 70.2353 10.292C69.942 10.1233 69.6083 10.039 69.2343 10.039C68.8603 10.039 68.5267 10.1233 68.2333 10.292C67.94 10.4607 67.7053 10.699 67.5293 11.007C67.3533 11.3077 67.2653 11.667 67.2653 12.085C67.2653 12.4957 67.3533 12.8587 67.5293 13.174C67.7053 13.482 67.94 13.7203 68.2333 13.889C68.5267 14.0577 68.8603 14.142 69.2343 14.142ZM76.8108 15.066C76.3268 15.066 75.8831 14.956 75.4798 14.736C75.0838 14.5087 74.7648 14.175 74.5228 13.735C74.2881 13.295 74.1707 12.745 74.1707 12.085C74.1707 11.425 74.2844 10.875 74.5118 10.435C74.7464 9.995 75.0618 9.665 75.4578 9.445C75.8611 9.225 76.3121 9.115 76.8108 9.115C77.3828 9.115 77.8888 9.23967 78.3288 9.489C78.7688 9.73833 79.1171 10.0867 79.3738 10.534C79.6304 10.974 79.7588 11.491 79.7588 12.085C79.7588 12.679 79.6304 13.1997 79.3738 13.647C79.1171 14.0943 78.7688 14.4427 78.3288 14.692C77.8888 14.9413 77.3828 15.066 76.8108 15.066ZM73.7198 17.134V9.17H74.7318V10.743L74.6658 12.096L74.7758 13.449V17.134H73.7198ZM76.7228 14.142C77.0968 14.142 77.4304 14.0577 77.7238 13.889C78.0244 13.7203 78.2591 13.482 78.4278 13.174C78.6038 12.8587 78.6918 12.4957 78.6918 12.085C78.6918 11.667 78.6038 11.3077 78.4278 11.007C78.2591 10.699 78.0244 10.4607 77.7238 10.292C77.4304 10.1233 77.0968 10.039 76.7228 10.039C76.3561 10.039 76.0224 10.1233 75.7218 10.292C75.4284 10.4607 75.1938 10.699 75.0178 11.007C74.8491 11.3077 74.7648 11.667 74.7648 12.085C74.7648 12.4957 74.8491 12.8587 75.0178 13.174C75.1938 13.482 75.4284 13.7203 75.7218 13.889C76.0224 14.0577 76.3561 14.142 76.7228 14.142ZM83.8138 15.066C83.1905 15.066 82.6405 14.9377 82.1638 14.681C81.6945 14.4243 81.3278 14.0723 81.0638 13.625C80.8071 13.1777 80.6788 12.6643 80.6788 12.085C80.6788 11.5057 80.8035 10.9923 81.0528 10.545C81.3095 10.0977 81.6578 9.74933 82.0978 9.5C82.5451 9.24333 83.0475 9.115 83.6048 9.115C84.1695 9.115 84.6681 9.23967 85.1008 9.489C85.5335 9.73833 85.8708 10.0903 86.1128 10.545C86.3621 10.9923 86.4868 11.5167 86.4868 12.118C86.4868 12.162 86.4831 12.2133 86.4758 12.272C86.4758 12.3307 86.4721 12.3857 86.4648 12.437H81.5038V11.678H85.9148L85.4858 11.942C85.4931 11.568 85.4161 11.2343 85.2548 10.941C85.0935 10.6477 84.8698 10.4203 84.5838 10.259C84.3051 10.0903 83.9788 10.006 83.6048 10.006C83.2381 10.006 82.9118 10.0903 82.6258 10.259C82.3398 10.4203 82.1161 10.6513 81.9548 10.952C81.7935 11.2453 81.7128 11.5827 81.7128 11.964V12.14C81.7128 12.5287 81.8008 12.877 81.9768 13.185C82.1601 13.4857 82.4131 13.7203 82.7358 13.889C83.0585 14.0577 83.4288 14.142 83.8468 14.142C84.1915 14.142 84.5031 14.0833 84.7818 13.966C85.0678 13.8487 85.3171 13.6727 85.5298 13.438L86.1128 14.12C85.8488 14.428 85.5188 14.6627 85.1228 14.824C84.7341 14.9853 84.2978 15.066 83.8138 15.066ZM91.0661 9.115C91.5428 9.115 91.9608 9.20667 92.3201 9.39C92.6868 9.57333 92.9728 9.852 93.1781 10.226C93.3835 10.6 93.4861 11.073 93.4861 11.645V15H92.4301V11.766C92.4301 11.2013 92.2908 10.776 92.0121 10.49C91.7408 10.204 91.3558 10.061 90.8571 10.061C90.4831 10.061 90.1568 10.1343 89.8781 10.281C89.5995 10.4277 89.3831 10.644 89.2291 10.93C89.0825 11.216 89.0091 11.5717 89.0091 11.997V15H87.9531V9.17H88.9651V10.743L88.8001 10.325C88.9908 9.94367 89.2841 9.64667 89.6801 9.434C90.0761 9.22133 90.5381 9.115 91.0661 9.115ZM95.6935 15.066C95.4881 15.066 95.3121 14.9963 95.1655 14.857C95.0188 14.7103 94.9455 14.527 94.9455 14.307C94.9455 14.087 95.0188 13.9073 95.1655 13.768C95.3121 13.6287 95.4881 13.559 95.6935 13.559C95.8915 13.559 96.0601 13.6287 96.1995 13.768C96.3461 13.9073 96.4195 14.087 96.4195 14.307C96.4195 14.527 96.3461 14.7103 96.1995 14.857C96.0601 14.9963 95.8915 15.066 95.6935 15.066ZM99.6046 15.066C99.1206 15.066 98.6586 15 98.2186 14.868C97.786 14.736 97.445 14.5747 97.1956 14.384L97.6356 13.548C97.885 13.7167 98.193 13.8597 98.5596 13.977C98.9263 14.0943 99.3003 14.153 99.6816 14.153C100.173 14.153 100.525 14.0833 100.738 13.944C100.958 13.8047 101.068 13.6103 101.068 13.361C101.068 13.1777 101.002 13.0347 100.87 12.932C100.738 12.8293 100.562 12.7523 100.342 12.701C100.129 12.6497 99.8906 12.6057 99.6266 12.569C99.3626 12.525 99.0986 12.4737 98.8346 12.415C98.5706 12.349 98.3286 12.261 98.1086 12.151C97.8886 12.0337 97.7126 11.876 97.5806 11.678C97.4486 11.4727 97.3826 11.2013 97.3826 10.864C97.3826 10.512 97.4816 10.204 97.6796 9.94C97.8776 9.676 98.1563 9.47433 98.5156 9.335C98.8823 9.18833 99.315 9.115 99.8136 9.115C100.195 9.115 100.58 9.16267 100.969 9.258C101.365 9.346 101.687 9.47433 101.937 9.643L101.486 10.479C101.222 10.303 100.947 10.182 100.661 10.116C100.375 10.05 100.089 10.017 99.8026 10.017C99.3406 10.017 98.996 10.094 98.7686 10.248C98.5413 10.3947 98.4276 10.5853 98.4276 10.82C98.4276 11.018 98.4936 11.172 98.6256 11.282C98.765 11.3847 98.941 11.4653 99.1536 11.524C99.3736 11.5827 99.6156 11.634 99.8796 11.678C100.144 11.7147 100.408 11.766 100.672 11.832C100.936 11.8907 101.174 11.975 101.387 12.085C101.607 12.195 101.783 12.349 101.915 12.547C102.054 12.745 102.124 13.009 102.124 13.339C102.124 13.691 102.021 13.9953 101.816 14.252C101.61 14.5087 101.321 14.7103 100.947 14.857C100.573 14.9963 100.125 15.066 99.6046 15.066ZM106.534 15.066C106.05 15.066 105.607 14.956 105.203 14.736C104.807 14.5087 104.488 14.175 104.246 13.735C104.012 13.295 103.894 12.745 103.894 12.085C103.894 11.425 104.008 10.875 104.235 10.435C104.47 9.995 104.785 9.665 105.181 9.445C105.585 9.225 106.036 9.115 106.534 9.115C107.106 9.115 107.612 9.23967 108.052 9.489C108.492 9.73833 108.841 10.0867 109.097 10.534C109.354 10.974 109.482 11.491 109.482 12.085C109.482 12.679 109.354 13.1997 109.097 13.647C108.841 14.0943 108.492 14.4427 108.052 14.692C107.612 14.9413 107.106 15.066 106.534 15.066ZM103.443 17.134V9.17H104.455V10.743L104.389 12.096L104.499 13.449V17.134H103.443ZM106.446 14.142C106.82 14.142 107.154 14.0577 107.447 13.889C107.748 13.7203 107.983 13.482 108.151 13.174C108.327 12.8587 108.415 12.4957 108.415 12.085C108.415 11.667 108.327 11.3077 108.151 11.007C107.983 10.699 107.748 10.4607 107.447 10.292C107.154 10.1233 106.82 10.039 106.446 10.039C106.08 10.039 105.746 10.1233 105.445 10.292C105.152 10.4607 104.917 10.699 104.741 11.007C104.573 11.3077 104.488 11.667 104.488 12.085C104.488 12.4957 104.573 12.8587 104.741 13.174C104.917 13.482 105.152 13.7203 105.445 13.889C105.746 14.0577 106.08 14.142 106.446 14.142ZM113.438 15.066C112.852 15.066 112.331 14.9377 111.876 14.681C111.422 14.4243 111.062 14.0723 110.798 13.625C110.534 13.1703 110.402 12.657 110.402 12.085C110.402 11.5057 110.534 10.9923 110.798 10.545C111.062 10.0977 111.422 9.74933 111.876 9.5C112.331 9.24333 112.852 9.115 113.438 9.115C114.018 9.115 114.535 9.24333 114.989 9.5C115.451 9.74933 115.811 10.0977 116.067 10.545C116.331 10.985 116.463 11.4983 116.463 12.085C116.463 12.6643 116.331 13.1777 116.067 13.625C115.811 14.0723 115.451 14.4243 114.989 14.681C114.535 14.9377 114.018 15.066 113.438 15.066ZM113.438 14.142C113.812 14.142 114.146 14.0577 114.439 13.889C114.74 13.7203 114.975 13.482 115.143 13.174C115.312 12.8587 115.396 12.4957 115.396 12.085C115.396 11.667 115.312 11.3077 115.143 11.007C114.975 10.699 114.74 10.4607 114.439 10.292C114.146 10.1233 113.812 10.039 113.438 10.039C113.064 10.039 112.731 10.1233 112.437 10.292C112.144 10.4607 111.909 10.699 111.733 11.007C111.557 11.3077 111.469 11.667 111.469 12.085C111.469 12.4957 111.557 12.8587 111.733 13.174C111.909 13.482 112.144 13.7203 112.437 13.889C112.731 14.0577 113.064 14.142 113.438 14.142ZM119.926 15.066C119.339 15.066 118.885 14.9083 118.562 14.593C118.239 14.2777 118.078 13.8267 118.078 13.24V7.894H119.134V13.196C119.134 13.5113 119.211 13.7533 119.365 13.922C119.526 14.0907 119.754 14.175 120.047 14.175C120.377 14.175 120.652 14.0833 120.872 13.9L121.202 14.659C121.041 14.7983 120.846 14.901 120.619 14.967C120.399 15.033 120.168 15.066 119.926 15.066ZM117.088 10.039V9.17H120.806V10.039H117.088ZM122.479 15V9.17H123.535V15H122.479ZM123.007 8.048C122.801 8.048 122.629 7.982 122.49 7.85C122.358 7.718 122.292 7.55667 122.292 7.366C122.292 7.168 122.358 7.003 122.49 6.871C122.629 6.739 122.801 6.673 123.007 6.673C123.212 6.673 123.381 6.739 123.513 6.871C123.652 6.99567 123.722 7.15333 123.722 7.344C123.722 7.542 123.656 7.71067 123.524 7.85C123.392 7.982 123.219 8.048 123.007 8.048ZM125.705 15V8.653C125.705 8.081 125.87 7.62633 126.2 7.289C126.537 6.94433 127.014 6.772 127.63 6.772C127.857 6.772 128.073 6.80133 128.279 6.86C128.491 6.91133 128.671 6.99567 128.818 7.113L128.499 7.916C128.389 7.828 128.264 7.762 128.125 7.718C127.985 7.66667 127.839 7.641 127.685 7.641C127.377 7.641 127.142 7.729 126.981 7.905C126.819 8.07367 126.739 8.32667 126.739 8.664V9.445L126.761 9.929V15H125.705ZM124.715 10.039V9.17H128.433V10.039H124.715ZM129.789 17.2C129.51 17.2 129.239 17.1523 128.975 17.057C128.711 16.969 128.484 16.837 128.293 16.661L128.744 15.869C128.891 16.0083 129.052 16.1147 129.228 16.188C129.404 16.2613 129.591 16.298 129.789 16.298C130.046 16.298 130.258 16.232 130.427 16.1C130.596 15.968 130.753 15.7333 130.9 15.396L131.263 14.593L131.373 14.461L133.661 9.17H134.695L131.868 15.583C131.699 15.9937 131.509 16.3163 131.296 16.551C131.091 16.7857 130.863 16.9507 130.614 17.046C130.365 17.1487 130.09 17.2 129.789 17.2ZM131.175 15.187L128.513 9.17H129.613L131.879 14.362L131.175 15.187ZM135.568 15.066C135.363 15.066 135.187 14.9963 135.04 14.857C134.894 14.7103 134.82 14.527 134.82 14.307C134.82 14.087 134.894 13.9073 135.04 13.768C135.187 13.6287 135.363 13.559 135.568 13.559C135.766 13.559 135.935 13.6287 136.074 13.768C136.221 13.9073 136.294 14.087 136.294 14.307C136.294 14.527 136.221 14.7103 136.074 14.857C135.935 14.9963 135.766 15.066 135.568 15.066ZM140.22 15.066C139.626 15.066 139.094 14.9377 138.625 14.681C138.163 14.4243 137.8 14.0723 137.536 13.625C137.272 13.1777 137.14 12.6643 137.14 12.085C137.14 11.5057 137.272 10.9923 137.536 10.545C137.8 10.0977 138.163 9.74933 138.625 9.5C139.094 9.24333 139.626 9.115 140.22 9.115C140.748 9.115 141.217 9.22133 141.628 9.434C142.046 9.63933 142.368 9.94733 142.596 10.358L141.793 10.875C141.602 10.589 141.367 10.38 141.089 10.248C140.817 10.1087 140.524 10.039 140.209 10.039C139.827 10.039 139.486 10.1233 139.186 10.292C138.885 10.4607 138.647 10.699 138.471 11.007C138.295 11.3077 138.207 11.667 138.207 12.085C138.207 12.503 138.295 12.866 138.471 13.174C138.647 13.482 138.885 13.7203 139.186 13.889C139.486 14.0577 139.827 14.142 140.209 14.142C140.524 14.142 140.817 14.076 141.089 13.944C141.367 13.8047 141.602 13.592 141.793 13.306L142.596 13.812C142.368 14.2153 142.046 14.527 141.628 14.747C141.217 14.9597 140.748 15.066 140.22 15.066ZM144.431 15.066C144.225 15.066 144.049 14.9963 143.903 14.857C143.756 14.7103 143.683 14.527 143.683 14.307C143.683 14.087 143.756 13.9073 143.903 13.768C144.049 13.6287 144.225 13.559 144.431 13.559C144.629 13.559 144.797 13.6287 144.937 13.768C145.083 13.9073 145.157 14.087 145.157 14.307C145.157 14.527 145.083 14.7103 144.937 14.857C144.797 14.9963 144.629 15.066 144.431 15.066ZM146.923 15.066C146.718 15.066 146.542 14.9963 146.395 14.857C146.248 14.7103 146.175 14.527 146.175 14.307C146.175 14.087 146.248 13.9073 146.395 13.768C146.542 13.6287 146.718 13.559 146.923 13.559C147.121 13.559 147.29 13.6287 147.429 13.768C147.576 13.9073 147.649 14.087 147.649 14.307C147.649 14.527 147.576 14.7103 147.429 14.857C147.29 14.9963 147.121 15.066 146.923 15.066ZM149.415 15.066C149.21 15.066 149.034 14.9963 148.887 14.857C148.74 14.7103 148.667 14.527 148.667 14.307C148.667 14.087 148.74 13.9073 148.887 13.768C149.034 13.6287 149.21 13.559 149.415 13.559C149.613 13.559 149.782 13.6287 149.921 13.768C150.068 13.9073 150.141 14.087 150.141 14.307C150.141 14.527 150.068 14.7103 149.921 14.857C149.782 14.9963 149.613 15.066 149.415 15.066Z" fill="#0129AB"/>
<path d="M176.417 10.0833H178.25V11.9166H176.417V10.0833ZM176.417 13.7499H178.25V15.5833H176.417V13.7499ZM180.083 10.0833H181.917V11.9166H180.083V10.0833ZM180.083 13.7499H181.917V15.5833H180.083V13.7499ZM183.75 10.0833H185.583V11.9166H183.75V10.0833ZM183.75 13.7499H185.583V15.5833H183.75V13.7499Z" fill="black"/>
<path d="M174.583 20.1666H187.417C188.428 20.1666 189.25 19.3443 189.25 18.3333V5.49992C189.25 4.48884 188.428 3.66659 187.417 3.66659H185.583V1.83325H183.75V3.66659H178.25V1.83325H176.417V3.66659H174.583C173.572 3.66659 172.75 4.48884 172.75 5.49992V18.3333C172.75 19.3443 173.572 20.1666 174.583 20.1666ZM187.417 7.33325L187.418 18.3333H174.583V7.33325H187.417Z" fill="black"/>
<path d="M202.354 10.001H206.182V11.178H202.354V10.001ZM202.464 13.301H206.809V14.5H201.034V6.8H206.655V7.999H202.464V13.301ZM211.604 8.56C212.073 8.56 212.491 8.65167 212.858 8.835C213.232 9.01833 213.525 9.30067 213.738 9.682C213.951 10.056 214.057 10.54 214.057 11.134V14.5H212.682V11.31C212.682 10.7893 212.557 10.4007 212.308 10.144C212.066 9.88733 211.725 9.759 211.285 9.759C210.962 9.759 210.676 9.825 210.427 9.957C210.178 10.089 209.983 10.287 209.844 10.551C209.712 10.8077 209.646 11.134 209.646 11.53V14.5H208.271V8.626H209.58V10.21L209.349 9.726C209.554 9.352 209.851 9.066 210.24 8.868C210.636 8.66267 211.091 8.56 211.604 8.56ZM218.012 14.577C217.367 14.577 216.868 14.412 216.516 14.082C216.164 13.7447 215.988 13.2497 215.988 12.597V7.328H217.363V12.564C217.363 12.8427 217.433 13.059 217.572 13.213C217.719 13.367 217.921 13.444 218.177 13.444C218.485 13.444 218.742 13.3633 218.947 13.202L219.332 14.181C219.171 14.313 218.973 14.412 218.738 14.478C218.504 14.544 218.262 14.577 218.012 14.577ZM215.02 9.77V8.67H218.936V9.77H215.02ZM220.464 14.5V8.626H221.773V10.243L221.619 9.77C221.795 9.374 222.07 9.07333 222.444 8.868C222.825 8.66267 223.298 8.56 223.863 8.56V9.869C223.804 9.85433 223.749 9.847 223.698 9.847C223.646 9.83967 223.595 9.836 223.544 9.836C223.023 9.836 222.609 9.99 222.301 10.298C221.993 10.5987 221.839 11.0497 221.839 11.651V14.5H220.464ZM227.615 14.577C227.014 14.577 226.479 14.4487 226.009 14.192C225.54 13.928 225.17 13.5687 224.898 13.114C224.627 12.6593 224.491 12.1423 224.491 11.563C224.491 10.9763 224.627 10.4593 224.898 10.012C225.17 9.55733 225.54 9.20167 226.009 8.945C226.479 8.68833 227.014 8.56 227.615 8.56C228.224 8.56 228.763 8.68833 229.232 8.945C229.709 9.20167 230.079 9.55367 230.343 10.001C230.615 10.4483 230.75 10.969 230.75 11.563C230.75 12.1423 230.615 12.6593 230.343 13.114C230.079 13.5687 229.709 13.928 229.232 14.192C228.763 14.4487 228.224 14.577 227.615 14.577ZM227.615 13.4C227.953 13.4 228.253 13.3267 228.517 13.18C228.781 13.0333 228.987 12.8207 229.133 12.542C229.287 12.2633 229.364 11.937 229.364 11.563C229.364 11.1817 229.287 10.8553 229.133 10.584C228.987 10.3053 228.781 10.0927 228.517 9.946C228.253 9.79933 227.956 9.726 227.626 9.726C227.289 9.726 226.988 9.79933 226.724 9.946C226.468 10.0927 226.262 10.3053 226.108 10.584C225.954 10.8553 225.877 11.1817 225.877 11.563C225.877 11.937 225.954 12.2633 226.108 12.542C226.262 12.8207 226.468 13.0333 226.724 13.18C226.988 13.3267 227.285 13.4 227.615 13.4ZM234.551 14.577C234.052 14.577 233.612 14.4853 233.231 14.302C232.85 14.1113 232.553 13.8253 232.34 13.444C232.127 13.0553 232.021 12.5677 232.021 11.981V8.626H233.396V11.794C233.396 12.322 233.513 12.718 233.748 12.982C233.99 13.2387 234.331 13.367 234.771 13.367C235.094 13.367 235.372 13.301 235.607 13.169C235.849 13.037 236.036 12.839 236.168 12.575C236.307 12.311 236.377 11.9847 236.377 11.596V8.626H237.752V14.5H236.443V12.916L236.674 13.4C236.476 13.7813 236.186 14.0747 235.805 14.28C235.424 14.478 235.006 14.577 234.551 14.577ZM245.925 8.56C246.395 8.56 246.813 8.65167 247.179 8.835C247.553 9.01833 247.847 9.30067 248.059 9.682C248.272 10.056 248.378 10.54 248.378 11.134V14.5H247.003V11.31C247.003 10.7893 246.879 10.4007 246.629 10.144C246.387 9.88733 246.046 9.759 245.606 9.759C245.284 9.759 244.998 9.825 244.748 9.957C244.499 10.089 244.305 10.287 244.165 10.551C244.033 10.8077 243.967 11.134 243.967 11.53V14.5H242.592V8.626H243.901V10.21L243.67 9.726C243.876 9.352 244.173 9.066 244.561 8.868C244.957 8.66267 245.412 8.56 245.925 8.56ZM252.773 14.577C252.172 14.577 251.637 14.4487 251.167 14.192C250.698 13.928 250.328 13.5687 250.056 13.114C249.785 12.6593 249.649 12.1423 249.649 11.563C249.649 10.9763 249.785 10.4593 250.056 10.012C250.328 9.55733 250.698 9.20167 251.167 8.945C251.637 8.68833 252.172 8.56 252.773 8.56C253.382 8.56 253.921 8.68833 254.39 8.945C254.867 9.20167 255.237 9.55367 255.501 10.001C255.773 10.4483 255.908 10.969 255.908 11.563C255.908 12.1423 255.773 12.6593 255.501 13.114C255.237 13.5687 254.867 13.928 254.39 14.192C253.921 14.4487 253.382 14.577 252.773 14.577ZM252.773 13.4C253.111 13.4 253.411 13.3267 253.675 13.18C253.939 13.0333 254.145 12.8207 254.291 12.542C254.445 12.2633 254.522 11.937 254.522 11.563C254.522 11.1817 254.445 10.8553 254.291 10.584C254.145 10.3053 253.939 10.0927 253.675 9.946C253.411 9.79933 253.114 9.726 252.784 9.726C252.447 9.726 252.146 9.79933 251.882 9.946C251.626 10.0927 251.42 10.3053 251.266 10.584C251.112 10.8553 251.035 11.1817 251.035 11.563C251.035 11.937 251.112 12.2633 251.266 12.542C251.42 12.8207 251.626 13.0333 251.882 13.18C252.146 13.3267 252.443 13.4 252.773 13.4ZM262.078 14.577C261.587 14.577 261.114 14.5147 260.659 14.39C260.212 14.258 259.856 14.1003 259.592 13.917L260.12 12.872C260.384 13.0407 260.7 13.18 261.066 13.29C261.433 13.4 261.8 13.455 262.166 13.455C262.599 13.455 262.911 13.3963 263.101 13.279C263.299 13.1617 263.398 13.004 263.398 12.806C263.398 12.6447 263.332 12.5237 263.2 12.443C263.068 12.355 262.896 12.289 262.683 12.245C262.471 12.201 262.232 12.1607 261.968 12.124C261.712 12.0873 261.451 12.0397 261.187 11.981C260.931 11.915 260.696 11.8233 260.483 11.706C260.271 11.5813 260.098 11.4163 259.966 11.211C259.834 11.0057 259.768 10.7343 259.768 10.397C259.768 10.023 259.875 9.70033 260.087 9.429C260.3 9.15033 260.597 8.93767 260.978 8.791C261.367 8.637 261.825 8.56 262.353 8.56C262.749 8.56 263.149 8.604 263.552 8.692C263.956 8.78 264.289 8.90467 264.553 9.066L264.025 10.111C263.747 9.94233 263.464 9.82867 263.178 9.77C262.9 9.704 262.621 9.671 262.342 9.671C261.924 9.671 261.613 9.73333 261.407 9.858C261.209 9.98267 261.11 10.1403 261.11 10.331C261.11 10.507 261.176 10.639 261.308 10.727C261.44 10.815 261.613 10.8847 261.825 10.936C262.038 10.9873 262.273 11.0313 262.529 11.068C262.793 11.0973 263.054 11.145 263.31 11.211C263.567 11.277 263.802 11.3687 264.014 11.486C264.234 11.596 264.41 11.7537 264.542 11.959C264.674 12.1643 264.74 12.432 264.74 12.762C264.74 13.1287 264.63 13.4477 264.41 13.719C264.198 13.9903 263.893 14.203 263.497 14.357C263.101 14.5037 262.628 14.577 262.078 14.577ZM265.924 14.5V8.626H267.299V14.5H265.924ZM266.617 7.658C266.361 7.658 266.148 7.57733 265.979 7.416C265.818 7.25467 265.737 7.06033 265.737 6.833C265.737 6.59833 265.818 6.404 265.979 6.25C266.148 6.08867 266.361 6.008 266.617 6.008C266.874 6.008 267.083 6.085 267.244 6.239C267.413 6.38567 267.497 6.57267 267.497 6.8C267.497 7.042 267.417 7.24733 267.255 7.416C267.094 7.57733 266.881 7.658 266.617 7.658ZM271.315 14.577C270.67 14.577 270.171 14.412 269.819 14.082C269.467 13.7447 269.291 13.2497 269.291 12.597V7.328H270.666V12.564C270.666 12.8427 270.736 13.059 270.875 13.213C271.022 13.367 271.223 13.444 271.48 13.444C271.788 13.444 272.045 13.3633 272.25 13.202L272.635 14.181C272.474 14.313 272.276 14.412 272.041 14.478C271.806 14.544 271.564 14.577 271.315 14.577ZM268.323 9.77V8.67H272.239V9.77H268.323ZM276.334 14.577C275.681 14.577 275.109 14.4487 274.618 14.192C274.134 13.928 273.756 13.5687 273.485 13.114C273.221 12.6593 273.089 12.1423 273.089 11.563C273.089 10.9763 273.217 10.4593 273.474 10.012C273.738 9.55733 274.097 9.20167 274.552 8.945C275.014 8.68833 275.538 8.56 276.125 8.56C276.697 8.56 277.207 8.68467 277.654 8.934C278.101 9.18333 278.453 9.53533 278.71 9.99C278.967 10.4447 279.095 10.98 279.095 11.596C279.095 11.6547 279.091 11.7207 279.084 11.794C279.084 11.8673 279.08 11.937 279.073 12.003H274.178V11.09H278.347L277.808 11.376C277.815 11.0387 277.746 10.7417 277.599 10.485C277.452 10.2283 277.251 10.0267 276.994 9.88C276.745 9.73333 276.455 9.66 276.125 9.66C275.788 9.66 275.491 9.73333 275.234 9.88C274.985 10.0267 274.787 10.232 274.64 10.496C274.501 10.7527 274.431 11.057 274.431 11.409V11.629C274.431 11.981 274.512 12.2927 274.673 12.564C274.834 12.8353 275.062 13.0443 275.355 13.191C275.648 13.3377 275.986 13.411 276.367 13.411C276.697 13.411 276.994 13.3597 277.258 13.257C277.522 13.1543 277.757 12.993 277.962 12.773L278.699 13.62C278.435 13.928 278.101 14.1663 277.698 14.335C277.302 14.4963 276.847 14.577 276.334 14.577ZM286.217 14.577C285.564 14.577 284.992 14.4487 284.501 14.192C284.017 13.928 283.639 13.5687 283.368 13.114C283.104 12.6593 282.972 12.1423 282.972 11.563C282.972 10.9763 283.1 10.4593 283.357 10.012C283.621 9.55733 283.98 9.20167 284.435 8.945C284.897 8.68833 285.421 8.56 286.008 8.56C286.58 8.56 287.089 8.68467 287.537 8.934C287.984 9.18333 288.336 9.53533 288.593 9.99C288.849 10.4447 288.978 10.98 288.978 11.596C288.978 11.6547 288.974 11.7207 288.967 11.794C288.967 11.8673 288.963 11.937 288.956 12.003H284.061V11.09H288.23L287.691 11.376C287.698 11.0387 287.628 10.7417 287.482 10.485C287.335 10.2283 287.133 10.0267 286.877 9.88C286.627 9.73333 286.338 9.66 286.008 9.66C285.67 9.66 285.373 9.73333 285.117 9.88C284.867 10.0267 284.669 10.232 284.523 10.496C284.383 10.7527 284.314 11.057 284.314 11.409V11.629C284.314 11.981 284.394 12.2927 284.556 12.564C284.717 12.8353 284.944 13.0443 285.238 13.191C285.531 13.3377 285.868 13.411 286.25 13.411C286.58 13.411 286.877 13.3597 287.141 13.257C287.405 13.1543 287.639 12.993 287.845 12.773L288.582 13.62C288.318 13.928 287.984 14.1663 287.581 14.335C287.185 14.4963 286.73 14.577 286.217 14.577ZM297.712 8.56C298.182 8.56 298.596 8.65167 298.955 8.835C299.322 9.01833 299.608 9.30067 299.813 9.682C300.019 10.056 300.121 10.54 300.121 11.134V14.5H298.746V11.31C298.746 10.7893 298.633 10.4007 298.405 10.144C298.178 9.88733 297.852 9.759 297.426 9.759C297.126 9.759 296.858 9.825 296.623 9.957C296.396 10.089 296.216 10.2833 296.084 10.54C295.96 10.7967 295.897 11.123 295.897 11.519V14.5H294.522V11.31C294.522 10.7893 294.409 10.4007 294.181 10.144C293.954 9.88733 293.628 9.759 293.202 9.759C292.902 9.759 292.634 9.825 292.399 9.957C292.172 10.089 291.992 10.2833 291.86 10.54C291.736 10.7967 291.673 11.123 291.673 11.519V14.5H290.298V8.626H291.607V10.188L291.376 9.726C291.574 9.34467 291.86 9.055 292.234 8.857C292.616 8.659 293.048 8.56 293.532 8.56C294.082 8.56 294.559 8.69567 294.962 8.967C295.373 9.23833 295.644 9.649 295.776 10.199L295.237 10.012C295.428 9.572 295.743 9.22 296.183 8.956C296.623 8.692 297.133 8.56 297.712 8.56ZM304.314 16.711C304.057 16.711 303.815 16.6817 303.588 16.623C303.353 16.5717 303.155 16.4873 302.994 16.37L303.39 15.347C303.602 15.501 303.87 15.578 304.193 15.578C304.442 15.578 304.636 15.4973 304.776 15.336C304.915 15.182 304.985 14.951 304.985 14.643V8.626H306.36V14.61C306.36 15.2553 306.18 15.765 305.821 16.139C305.469 16.5203 304.966 16.711 304.314 16.711ZM305.667 7.658C305.41 7.658 305.197 7.57733 305.029 7.416C304.867 7.25467 304.787 7.06033 304.787 6.833C304.787 6.59833 304.867 6.404 305.029 6.25C305.197 6.08867 305.41 6.008 305.667 6.008C305.923 6.008 306.132 6.085 306.294 6.239C306.462 6.38567 306.547 6.57267 306.547 6.8C306.547 7.042 306.466 7.24733 306.305 7.416C306.143 7.57733 305.931 7.658 305.667 7.658ZM311.782 14.5V13.312L311.705 13.059V10.98C311.705 10.5767 311.584 10.265 311.342 10.045C311.1 9.81767 310.733 9.704 310.242 9.704C309.912 9.704 309.585 9.75533 309.263 9.858C308.947 9.96067 308.68 10.1037 308.46 10.287L307.921 9.286C308.236 9.044 308.61 8.86433 309.043 8.747C309.483 8.62233 309.937 8.56 310.407 8.56C311.257 8.56 311.914 8.76533 312.376 9.176C312.845 9.57933 313.08 10.2063 313.08 11.057V14.5H311.782ZM309.934 14.577C309.494 14.577 309.109 14.5037 308.779 14.357C308.449 14.203 308.192 13.994 308.009 13.73C307.833 13.4587 307.745 13.1543 307.745 12.817C307.745 12.487 307.822 12.19 307.976 11.926C308.137 11.662 308.397 11.453 308.757 11.299C309.116 11.145 309.593 11.068 310.187 11.068H311.892V11.981H310.286C309.816 11.981 309.501 12.058 309.34 12.212C309.178 12.3587 309.098 12.542 309.098 12.762C309.098 13.0113 309.197 13.2093 309.395 13.356C309.593 13.5027 309.868 13.576 310.22 13.576C310.557 13.576 310.858 13.499 311.122 13.345C311.393 13.191 311.587 12.9637 311.705 12.663L311.936 13.488C311.804 13.8327 311.565 14.1003 311.221 14.291C310.883 14.4817 310.454 14.577 309.934 14.577ZM318.177 8.56C318.647 8.56 319.065 8.65167 319.431 8.835C319.805 9.01833 320.099 9.30067 320.311 9.682C320.524 10.056 320.63 10.54 320.63 11.134V14.5H319.255V11.31C319.255 10.7893 319.131 10.4007 318.881 10.144C318.639 9.88733 318.298 9.759 317.858 9.759C317.536 9.759 317.25 9.825 317 9.957C316.751 10.089 316.557 10.287 316.417 10.551C316.285 10.8077 316.219 11.134 316.219 11.53V14.5H314.844V8.626H316.153V10.21L315.922 9.726C316.128 9.352 316.425 9.066 316.813 8.868C317.209 8.66267 317.664 8.56 318.177 8.56ZM325.146 14.577C324.494 14.577 323.922 14.4487 323.43 14.192C322.946 13.928 322.569 13.5687 322.297 13.114C322.033 12.6593 321.901 12.1423 321.901 11.563C321.901 10.9763 322.03 10.4593 322.286 10.012C322.55 9.55733 322.91 9.20167 323.364 8.945C323.826 8.68833 324.351 8.56 324.937 8.56C325.509 8.56 326.019 8.68467 326.466 8.934C326.914 9.18333 327.266 9.53533 327.522 9.99C327.779 10.4447 327.907 10.98 327.907 11.596C327.907 11.6547 327.904 11.7207 327.896 11.794C327.896 11.8673 327.893 11.937 327.885 12.003H322.99V11.09H327.159L326.62 11.376C326.628 11.0387 326.558 10.7417 326.411 10.485C326.265 10.2283 326.063 10.0267 325.806 9.88C325.557 9.73333 325.267 9.66 324.937 9.66C324.6 9.66 324.303 9.73333 324.046 9.88C323.797 10.0267 323.599 10.232 323.452 10.496C323.313 10.7527 323.243 11.057 323.243 11.409V11.629C323.243 11.981 323.324 12.2927 323.485 12.564C323.647 12.8353 323.874 13.0443 324.167 13.191C324.461 13.3377 324.798 13.411 325.179 13.411C325.509 13.411 325.806 13.3597 326.07 13.257C326.334 13.1543 326.569 12.993 326.774 12.773L327.511 13.62C327.247 13.928 326.914 14.1663 326.51 14.335C326.114 14.4963 325.66 14.577 325.146 14.577ZM329.228 14.5V8.626H330.603V14.5H329.228ZM329.921 7.658C329.665 7.658 329.452 7.57733 329.283 7.416C329.122 7.25467 329.041 7.06033 329.041 6.833C329.041 6.59833 329.122 6.404 329.283 6.25C329.452 6.08867 329.665 6.008 329.921 6.008C330.178 6.008 330.387 6.085 330.548 6.239C330.717 6.38567 330.801 6.57267 330.801 6.8C330.801 7.042 330.721 7.24733 330.559 7.416C330.398 7.57733 330.185 7.658 329.921 7.658ZM332.408 14.5V8.626H333.717V10.243L333.563 9.77C333.739 9.374 334.014 9.07333 334.388 8.868C334.769 8.66267 335.242 8.56 335.807 8.56V9.869C335.748 9.85433 335.693 9.847 335.642 9.847C335.591 9.83967 335.539 9.836 335.488 9.836C334.967 9.836 334.553 9.99 334.245 10.298C333.937 10.5987 333.783 11.0497 333.783 11.651V14.5H332.408ZM339.56 14.577C338.958 14.577 338.423 14.4487 337.954 14.192C337.484 13.928 337.114 13.5687 336.843 13.114C336.571 12.6593 336.436 12.1423 336.436 11.563C336.436 10.9763 336.571 10.4593 336.843 10.012C337.114 9.55733 337.484 9.20167 337.954 8.945C338.423 8.68833 338.958 8.56 339.56 8.56C340.168 8.56 340.707 8.68833 341.177 8.945C341.653 9.20167 342.024 9.55367 342.288 10.001C342.559 10.4483 342.695 10.969 342.695 11.563C342.695 12.1423 342.559 12.6593 342.288 13.114C342.024 13.5687 341.653 13.928 341.177 14.192C340.707 14.4487 340.168 14.577 339.56 14.577ZM339.56 13.4C339.897 13.4 340.198 13.3267 340.462 13.18C340.726 13.0333 340.931 12.8207 341.078 12.542C341.232 12.2633 341.309 11.937 341.309 11.563C341.309 11.1817 341.232 10.8553 341.078 10.584C340.931 10.3053 340.726 10.0927 340.462 9.946C340.198 9.79933 339.901 9.726 339.571 9.726C339.233 9.726 338.933 9.79933 338.669 9.946C338.412 10.0927 338.207 10.3053 338.053 10.584C337.899 10.8553 337.822 11.1817 337.822 11.563C337.822 11.937 337.899 12.2633 338.053 12.542C338.207 12.8207 338.412 13.0333 338.669 13.18C338.933 13.3267 339.23 13.4 339.56 13.4ZM349.535 14.577C348.971 14.577 348.461 14.4523 348.006 14.203C347.559 13.9463 347.207 13.5943 346.95 13.147C346.694 12.6997 346.565 12.1717 346.565 11.563C346.565 10.9543 346.694 10.4263 346.95 9.979C347.207 9.53167 347.559 9.18333 348.006 8.934C348.461 8.68467 348.971 8.56 349.535 8.56C350.027 8.56 350.467 8.67 350.855 8.89C351.244 9.10267 351.552 9.429 351.779 9.869C352.007 10.309 352.12 10.8737 352.12 11.563C352.12 12.245 352.01 12.8097 351.79 13.257C351.57 13.697 351.266 14.027 350.877 14.247C350.489 14.467 350.041 14.577 349.535 14.577ZM349.7 13.4C350.03 13.4 350.324 13.3267 350.58 13.18C350.844 13.0333 351.053 12.8207 351.207 12.542C351.369 12.2633 351.449 11.937 351.449 11.563C351.449 11.1817 351.369 10.8553 351.207 10.584C351.053 10.3053 350.844 10.0927 350.58 9.946C350.324 9.79933 350.03 9.726 349.7 9.726C349.37 9.726 349.073 9.79933 348.809 9.946C348.553 10.0927 348.344 10.3053 348.182 10.584C348.028 10.8553 347.951 11.1817 347.951 11.563C347.951 11.937 348.028 12.2633 348.182 12.542C348.344 12.8207 348.553 13.0333 348.809 13.18C349.073 13.3267 349.37 13.4 349.7 13.4ZM351.482 14.5V13.114L351.537 11.552L351.427 9.99V6.338H352.791V14.5H351.482ZM357.362 14.577C356.71 14.577 356.138 14.4487 355.646 14.192C355.162 13.928 354.785 13.5687 354.513 13.114C354.249 12.6593 354.117 12.1423 354.117 11.563C354.117 10.9763 354.246 10.4593 354.502 10.012C354.766 9.55733 355.126 9.20167 355.58 8.945C356.042 8.68833 356.567 8.56 357.153 8.56C357.725 8.56 358.235 8.68467 358.682 8.934C359.13 9.18333 359.482 9.53533 359.738 9.99C359.995 10.4447 360.123 10.98 360.123 11.596C360.123 11.6547 360.12 11.7207 360.112 11.794C360.112 11.8673 360.109 11.937 360.101 12.003H355.206V11.09H359.375L358.836 11.376C358.844 11.0387 358.774 10.7417 358.627 10.485C358.481 10.2283 358.279 10.0267 358.022 9.88C357.773 9.73333 357.483 9.66 357.153 9.66C356.816 9.66 356.519 9.73333 356.262 9.88C356.013 10.0267 355.815 10.232 355.668 10.496C355.529 10.7527 355.459 11.057 355.459 11.409V11.629C355.459 11.981 355.54 12.2927 355.701 12.564C355.863 12.8353 356.09 13.0443 356.383 13.191C356.677 13.3377 357.014 13.411 357.395 13.411C357.725 13.411 358.022 13.3597 358.286 13.257C358.55 13.1543 358.785 12.993 358.99 12.773L359.727 13.62C359.463 13.928 359.13 14.1663 358.726 14.335C358.33 14.4963 357.876 14.577 357.362 14.577ZM363.967 14.5V13.543L367.025 10.639C367.282 10.397 367.472 10.1843 367.597 10.001C367.722 9.81767 367.802 9.649 367.839 9.495C367.883 9.33367 367.905 9.18333 367.905 9.044C367.905 8.692 367.784 8.42067 367.542 8.23C367.3 8.032 366.944 7.933 366.475 7.933C366.101 7.933 365.76 7.999 365.452 8.131C365.151 8.263 364.891 8.46467 364.671 8.736L363.67 7.966C363.971 7.56267 364.374 7.251 364.88 7.031C365.393 6.80367 365.965 6.69 366.596 6.69C367.153 6.69 367.637 6.78167 368.048 6.965C368.466 7.141 368.785 7.394 369.005 7.724C369.232 8.054 369.346 8.44633 369.346 8.901C369.346 9.15033 369.313 9.39967 369.247 9.649C369.181 9.891 369.056 10.1477 368.873 10.419C368.69 10.6903 368.422 10.9947 368.07 11.332L365.441 13.829L365.144 13.29H369.643V14.5H363.967ZM373.68 14.61C373.072 14.61 372.522 14.456 372.03 14.148C371.546 13.84 371.165 13.3927 370.886 12.806C370.608 12.212 370.468 11.4933 370.468 10.65C370.468 9.80667 370.608 9.09167 370.886 8.505C371.165 7.911 371.546 7.46 372.03 7.152C372.522 6.844 373.072 6.69 373.68 6.69C374.296 6.69 374.846 6.844 375.33 7.152C375.814 7.46 376.196 7.911 376.474 8.505C376.76 9.09167 376.903 9.80667 376.903 10.65C376.903 11.4933 376.76 12.212 376.474 12.806C376.196 13.3927 375.814 13.84 375.33 14.148C374.846 14.456 374.296 14.61 373.68 14.61ZM373.68 13.367C374.04 13.367 374.351 13.2717 374.615 13.081C374.879 12.883 375.085 12.5823 375.231 12.179C375.385 11.7757 375.462 11.266 375.462 10.65C375.462 10.0267 375.385 9.517 375.231 9.121C375.085 8.71767 374.879 8.42067 374.615 8.23C374.351 8.032 374.04 7.933 373.68 7.933C373.336 7.933 373.028 8.032 372.756 8.23C372.492 8.42067 372.283 8.71767 372.129 9.121C371.983 9.517 371.909 10.0267 371.909 10.65C371.909 11.266 371.983 11.7757 372.129 12.179C372.283 12.5823 372.492 12.883 372.756 13.081C373.028 13.2717 373.336 13.367 373.68 13.367ZM377.76 14.5V13.543L380.818 10.639C381.075 10.397 381.265 10.1843 381.39 10.001C381.515 9.81767 381.595 9.649 381.632 9.495C381.676 9.33367 381.698 9.18333 381.698 9.044C381.698 8.692 381.577 8.42067 381.335 8.23C381.093 8.032 380.737 7.933 380.268 7.933C379.894 7.933 379.553 7.999 379.245 8.131C378.944 8.263 378.684 8.46467 378.464 8.736L377.463 7.966C377.764 7.56267 378.167 7.251 378.673 7.031C379.186 6.80367 379.758 6.69 380.389 6.69C380.946 6.69 381.43 6.78167 381.841 6.965C382.259 7.141 382.578 7.394 382.798 7.724C383.025 8.054 383.139 8.44633 383.139 8.901C383.139 9.15033 383.106 9.39967 383.04 9.649C382.974 9.891 382.849 10.1477 382.666 10.419C382.483 10.6903 382.215 10.9947 381.863 11.332L379.234 13.829L378.937 13.29H383.436V14.5H377.76ZM383.99 12.751V11.761L387.785 6.8H389.314L385.574 11.761L384.859 11.541H390.964V12.751H383.99ZM388.214 14.5V12.751L388.258 11.541V9.99H389.6V14.5H388.214Z" fill="black"/>
<defs>
<clipPath id="clip0_815_75">
<rect width="15" height="15" fill="white" transform="translate(0 4)"/>
</clipPath>
</defs>
</svg>
