<svg width="193" height="29" viewBox="0 0 193 29" fill="none" xmlns="http://www.w3.org/2000/svg">
<path d="M10.7119 11.7749L17.4124 5H15.8243L10.0078 10.8823L5.3599 5H0L7.02742 13.896L0 21H1.58812L7.73149 14.7874L12.6401 21H18L10.7119 11.7749ZM8.53746 13.9737L7.82545 13.088L2.15984 6.04H4.59893L9.17006 11.728L9.88207 12.6137L15.8256 20.008H13.3865L8.53746 13.9737Z" fill="white"/>
<path d="M47.699 1H57.779C61.619 1 64.739 3.99 64.739 7.67V17.33C64.739 19.099 64.0057 20.7955 62.7005 22.0464C61.3952 23.2973 59.6249 24 57.779 24H47.699C43.859 24 40.739 21.01 40.739 17.33V7.67C40.739 5.90101 41.4723 4.20447 42.7776 2.9536C44.0828 1.70273 45.8531 1 47.699 1ZM47.459 3.3C46.3133 3.3 45.2145 3.73618 44.4043 4.51258C43.5942 5.28898 43.139 6.342 43.139 7.44V17.56C43.139 19.8485 45.071 21.7 47.459 21.7H58.019C59.1647 21.7 60.2636 21.2638 61.0737 20.4874C61.8839 19.711 62.339 18.658 62.339 17.56V7.44C62.339 5.1515 60.407 3.3 58.019 3.3H47.459ZM59.039 5.025C59.4368 5.025 59.8184 5.17645 60.0997 5.44603C60.381 5.71562 60.539 6.08125 60.539 6.4625C60.539 6.84375 60.381 7.20938 60.0997 7.47897C59.8184 7.74855 59.4368 7.9 59.039 7.9C58.6412 7.9 58.2597 7.74855 57.9784 7.47897C57.697 7.20938 57.539 6.84375 57.539 6.4625C57.539 6.08125 57.697 5.71562 57.9784 5.44603C58.2597 5.17645 58.6412 5.025 59.039 5.025ZM52.739 6.75C54.3303 6.75 55.8564 7.3558 56.9817 8.43414C58.1069 9.51247 58.739 10.975 58.739 12.5C58.739 14.025 58.1069 15.4875 56.9817 16.5659C55.8564 17.6442 54.3303 18.25 52.739 18.25C51.1477 18.25 49.6216 17.6442 48.4964 16.5659C47.3712 15.4875 46.739 14.025 46.739 12.5C46.739 10.975 47.3712 9.51247 48.4964 8.43414C49.6216 7.3558 51.1477 6.75 52.739 6.75ZM52.739 9.05C51.7842 9.05 50.8686 9.41348 50.1934 10.0605C49.5183 10.7075 49.139 11.585 49.139 12.5C49.139 13.415 49.5183 14.2925 50.1934 14.9395C50.8686 15.5865 51.7842 15.95 52.739 15.95C53.6938 15.95 54.6095 15.5865 55.2846 14.9395C55.9597 14.2925 56.339 13.415 56.339 12.5C56.339 11.585 55.9597 10.7075 55.2846 10.0605C54.6095 9.41348 53.6938 9.05 52.739 9.05Z" fill="white"/>
<path d="M110.184 2C110.861 2 111.511 2.24583 111.991 2.68342C112.47 3.121 112.739 3.71449 112.739 4.33333V20.6667C112.739 21.2855 112.47 21.879 111.991 22.3166C111.511 22.7542 110.861 23 110.184 23H92.2948C91.617 23 90.967 22.7542 90.4878 22.3166C90.0085 21.879 89.7393 21.2855 89.7393 20.6667V4.33333C89.7393 3.71449 90.0085 3.121 90.4878 2.68342C90.967 2.24583 91.617 2 92.2948 2H110.184ZM109.545 20.0833V13.9C109.545 12.8913 109.106 11.9239 108.325 11.2106C107.544 10.4974 106.484 10.0967 105.379 10.0967C104.293 10.0967 103.028 10.7033 102.415 11.6133V10.3183H98.8498V20.0833H102.415V14.3317C102.415 13.4333 103.207 12.6983 104.191 12.6983C104.665 12.6983 105.12 12.8704 105.456 13.1767C105.791 13.483 105.98 13.8985 105.98 14.3317V20.0833H109.545ZM94.697 8.48667C95.2664 8.48667 95.8124 8.28017 96.215 7.9126C96.6175 7.54502 96.8437 7.04649 96.8437 6.52667C96.8437 5.44167 95.8854 4.555 94.697 4.555C94.1243 4.555 93.5751 4.76273 93.1701 5.13249C92.7651 5.50225 92.5376 6.00375 92.5376 6.52667C92.5376 7.61167 93.5087 8.48667 94.697 8.48667ZM96.4731 20.0833V10.3183H92.9337V20.0833H96.4731Z" fill="white"/>
<path d="M162.739 12.0301C162.739 5.38947 156.915 0 149.739 0C142.563 0 136.739 5.38947 136.739 12.0301C136.739 17.8526 141.211 22.7008 147.139 23.8195V15.6391H144.539V12.0301H147.139V9.02256C147.139 6.70075 149.18 4.81203 151.689 4.81203H154.939V8.42105H152.339C151.624 8.42105 151.039 8.96241 151.039 9.62406V12.0301H154.939V15.6391H151.039V24C157.604 23.3985 162.739 18.2737 162.739 12.0301Z" fill="white"/>
</svg>
